<?xml version="1.0" standalone="no"?>
<!DOCTYPE svg PUBLIC "-//W3C//DTD SVG 20010904//EN"
 "http://www.w3.org/TR/2001/REC-SVG-20010904/DTD/svg10.dtd">
<svg version="1.0" xmlns="http://www.w3.org/2000/svg"
 width="641.000000pt" height="641.000000pt" viewBox="0 0 641.000000 641.000000"
 preserveAspectRatio="xMidYMid meet">
<metadata>
Created by potrace 1.11, written by Peter Selinger 2001-2013
</metadata>
<g transform="translate(0.000000,641.000000) scale(0.100000,-0.100000)"
fill="#000000" stroke="none">
<path d="M4837 6352 c-35 -27 -93 -76 -128 -109 -68 -64 -104 -96 -139 -126
-39 -33 -332 -260 -435 -337 -55 -41 -105 -80 -111 -85 -6 -6 -37 -28 -70 -50
-32 -22 -61 -42 -64 -45 -10 -12 -76 -56 -110 -74 -19 -10 -37 -21 -40 -25 -3
-3 -23 -16 -45 -28 -22 -11 -58 -31 -80 -43 -22 -13 -67 -37 -100 -54 -33 -17
-63 -35 -67 -41 -4 -5 -8 -6 -8 -1 0 5 -8 2 -17 -6 -10 -9 -56 -35 -103 -59
-47 -23 -87 -45 -90 -48 -5 -7 -162 -81 -171 -81 -11 0 -70 81 -74 101 -2 11
-13 28 -25 37 -20 16 -27 35 -29 73 -1 9 -13 22 -28 30 -31 15 -63 44 -64 56
-1 39 -13 52 -54 59 -36 5 -52 1 -96 -22 -57 -32 -143 -111 -205 -189 -61 -78
-245 -257 -275 -267 -19 -7 -227 -198 -215 -198 3 0 -5 -11 -18 -25 -37 -39
-46 -83 -60 -293 -6 -79 -22 -220 -31 -272 -2 -14 -7 -43 -10 -65 -7 -54 -11
-72 -25 -125 -7 -25 -13 -52 -15 -60 -2 -8 -8 -26 -13 -40 -5 -14 -11 -29 -12
-35 -3 -16 -34 -69 -45 -77 -5 -4 -7 -8 -4 -8 4 0 -2 -30 -13 -67 -11 -38 -21
-79 -24 -93 -3 -13 -11 -38 -19 -55 -7 -16 -24 -55 -38 -86 -15 -34 -47 -78
-85 -116 -54 -54 -68 -63 -119 -73 -32 -7 -72 -16 -89 -21 -17 -5 -40 -11 -50
-13 -96 -19 -142 -40 -199 -91 -40 -35 -81 -52 -120 -47 -42 5 -141 14 -160
15 -37 1 -160 -14 -200 -24 -22 -5 -47 -11 -55 -13 -49 -13 -191 -83 -235
-118 -87 -68 -190 -182 -179 -199 3 -5 1 -9 -4 -9 -9 0 -16 -12 -60 -110 -36
-79 -49 -126 -56 -205 -2 -33 -9 -73 -15 -88 -21 -55 -27 -111 -18 -169 2 -10
18 -37 35 -62 68 -94 124 -106 115 -24 -5 40 -1 47 45 100 27 31 53 54 56 51
3 -4 6 -1 6 5 0 31 179 100 250 96 14 -1 35 -2 48 -3 13 0 47 -25 81 -58 112
-110 246 -232 296 -269 28 -21 52 -42 53 -46 2 -4 10 -8 18 -8 8 0 14 -5 14
-12 0 -6 3 -9 6 -5 4 3 23 -5 43 -18 19 -14 39 -25 44 -25 5 0 32 -11 60 -24
48 -23 81 -36 100 -41 4 -2 9 -4 12 -5 3 -1 8 -3 13 -4 141 -36 195 -74 274
-196 42 -64 108 -190 108 -207 0 -3 7 -19 14 -36 22 -47 67 -222 71 -274 2
-26 -1 -56 -8 -67 -6 -12 -11 -23 -12 -26 -1 -15 -69 -110 -78 -110 -6 0 -8
-3 -4 -6 8 -8 -104 -113 -120 -114 -7 0 -13 -4 -13 -9 0 -5 -17 -16 -37 -24
-34 -13 -55 -18 -153 -32 -14 -2 -67 -7 -118 -10 -151 -9 -230 -25 -257 -51
-8 -8 -15 -12 -15 -8 0 4 -10 -1 -22 -12 -13 -11 -43 -29 -68 -40 -60 -25 -90
-53 -90 -81 0 -20 4 -23 28 -18 51 11 112 3 112 -14 0 -15 46 -28 90 -25 56 3
80 7 155 30 33 10 69 19 80 20 86 10 115 11 115 3 0 -4 7 -6 15 -3 34 13 12
-13 -30 -35 -40 -21 -104 -71 -91 -71 6 0 -12 -34 -36 -70 -9 -14 -19 -36 -22
-50 -3 -14 -7 -34 -10 -46 -2 -11 0 -27 4 -34 7 -12 12 -11 29 4 12 11 21 24
21 30 0 22 42 47 88 53 44 4 138 27 172 40 8 4 17 7 20 8 3 1 16 6 30 12 60
25 68 25 76 1 4 -13 8 -45 9 -73 4 -114 47 -175 121 -171 18 1 30 -2 28 -6 -2
-3 0 -9 5 -13 12 -7 -3 -47 -31 -84 -61 -81 31 -80 104 0 25 29 27 32 37 99
13 87 6 131 -37 222 -23 48 -42 91 -42 96 0 11 23 23 54 29 11 2 25 8 32 14 7
6 39 13 71 15 32 3 59 7 61 9 2 2 15 0 28 -6 48 -18 132 -19 149 -2 16 16 31
14 150 -13 50 -11 118 -12 134 -2 14 9 28 7 60 -5 22 -9 41 -14 41 -11 0 4 6
2 13 -4 15 -12 107 -15 107 -3 0 4 -15 23 -34 42 -40 38 -38 49 4 43 16 -3 37
-1 45 3 13 8 13 12 -5 31 -11 11 -20 25 -20 30 0 5 -6 14 -13 20 -7 6 -14 32
-16 57 -2 43 -1 46 29 51 36 8 37 14 7 51 -50 62 -49 60 -22 59 13 -1 27 -4
30 -7 11 -11 55 3 55 18 0 7 -11 25 -25 39 -14 14 -25 32 -25 40 0 8 -4 13 -8
10 -5 -3 -9 1 -9 8 0 13 14 13 69 0 26 -6 26 -5 21 35 -3 23 -2 41 3 41 5 0
42 -10 82 -23 67 -21 93 -37 182 -115 19 -17 38 -28 42 -26 4 3 8 1 8 -4 0 -5
14 -9 31 -8 28 1 30 3 25 28 -5 27 2 34 28 29 5 -1 16 1 25 5 9 4 27 8 41 10
14 1 28 2 32 3 4 1 5 7 2 15 -3 9 3 13 18 13 51 1 57 3 51 19 -4 10 1 17 15
21 18 4 20 9 11 24 -9 17 -6 21 20 30 35 12 33 30 -11 72 -16 15 -23 27 -16
27 9 0 9 3 -2 10 -27 17 0 11 41 -11 26 -13 56 -19 82 -18 23 2 59 -5 81 -14
21 -9 42 -14 47 -11 5 3 23 -2 40 -10 21 -10 45 -14 68 -10 27 4 51 0 87 -16
27 -12 58 -26 69 -30 11 -5 41 -18 67 -28 25 -11 49 -18 52 -14 3 3 6 0 6 -6
0 -6 16 -14 35 -18 19 -3 35 -10 35 -15 0 -5 3 -8 8 -7 4 1 21 -4 37 -11 17
-7 59 -23 95 -37 75 -29 136 -53 165 -65 65 -27 164 -57 169 -52 3 4 6 2 6 -4
0 -9 151 -49 178 -47 6 1 19 2 27 3 8 0 15 8 15 16 0 20 -77 94 -117 111 -18
8 -36 20 -40 28 -4 8 -12 15 -18 15 -5 0 -11 5 -13 13 -3 10 -2 10 6 -1 7 -10
11 -10 14 -1 3 10 7 10 18 -1 8 -8 22 -15 30 -15 8 -1 64 -18 123 -38 60 -21
111 -35 115 -32 3 3 10 2 16 -3 6 -5 31 -12 56 -16 84 -13 122 -12 143 6 21
16 21 17 -14 35 -18 10 -36 19 -39 19 -23 7 -86 40 -92 49 -6 8 -8 7 -8 -2 0
-10 -4 -10 -22 0 -13 7 -26 18 -30 23 -4 6 -8 6 -8 2 0 -5 -15 1 -33 12 -19
11 -38 17 -42 13 -5 -4 -5 -1 -1 6 6 11 13 10 32 -3 13 -8 24 -12 24 -8 0 5 5
1 10 -7 9 -13 10 -13 10 0 0 13 1 13 10 0 5 -8 21 -16 36 -17 15 -1 30 -6 33
-10 3 -4 13 -9 21 -10 8 -1 49 -11 90 -22 143 -39 277 -48 306 -20 13 14 13
17 0 28 -8 7 -27 14 -43 17 -15 3 -49 11 -75 19 -25 7 -49 11 -52 8 -3 -4 -6
-2 -6 4 0 10 -79 37 -92 31 -4 -2 -13 6 -21 16 -8 11 -19 16 -25 12 -7 -4 -12
-2 -12 4 0 7 -7 9 -16 6 -15 -6 -15 -4 -3 10 7 9 15 12 17 6 2 -6 10 -8 18 -5
8 3 14 0 14 -7 0 -6 4 -9 9 -5 5 3 12 1 16 -5 4 -6 10 -8 15 -5 5 3 28 1 52
-5 24 -6 59 -15 78 -20 19 -4 46 -11 60 -14 23 -6 91 -14 166 -20 18 -1 40 4
50 11 18 14 18 15 -9 39 -15 13 -34 24 -42 24 -8 0 -30 9 -50 20 -19 11 -38
19 -41 19 -6 -1 -63 20 -86 32 -10 5 -23 9 -29 9 -6 0 -17 7 -26 15 -8 8 -18
13 -23 10 -4 -3 -13 2 -19 9 -10 12 -9 14 6 11 10 -2 20 -4 23 -5 12 -5 56 3
64 11 6 5 -1 18 -17 33 -14 13 -28 21 -31 18 -3 -3 -6 0 -6 6 0 6 5 14 10 17
6 3 10 2 10 -4 0 -5 8 -9 18 -9 9 1 45 -6 80 -15 101 -27 123 -30 195 -31 49
0 71 4 77 14 6 10 4 17 -6 23 -8 5 -11 13 -8 19 4 6 3 8 -3 5 -5 -3 -31 0 -56
8 -26 8 -47 11 -47 8 0 -3 -6 -1 -12 5 -7 5 -26 13 -43 15 -53 10 -150 40
-156 50 -3 5 -9 8 -13 7 -15 -4 -63 22 -63 34 0 15 50 12 135 -9 12 -3 32 -7
45 -10 12 -2 34 -7 49 -11 46 -9 146 -12 159 -3 27 16 -36 84 -121 130 -14 8
-27 17 -30 20 -5 5 -97 49 -104 49 -2 0 -21 7 -42 16 -22 9 -39 15 -40 13 0
-2 -7 1 -15 8 -8 6 -26 14 -39 17 -22 5 -129 39 -170 54 -8 3 -26 7 -40 9 -14
2 -50 11 -80 20 -54 16 -190 49 -240 58 -14 3 -36 8 -50 11 -25 7 -36 9 -100
17 -19 3 -42 8 -50 11 -8 2 -35 8 -60 11 -56 8 -75 11 -120 20 -19 3 -48 8
-65 11 -16 2 -39 5 -50 8 -11 2 -45 7 -75 11 -30 4 -62 9 -70 10 -60 11 -150
24 -200 30 -19 2 -55 7 -80 11 -25 3 -55 8 -67 9 -12 2 -36 7 -55 11 -18 4
-35 7 -38 7 -14 -3 -105 54 -107 67 -2 10 17 24 54 40 97 41 163 124 158 198
-2 33 -19 57 -67 100 -32 27 -36 47 -10 50 35 4 48 8 80 27 17 11 34 27 37 36
3 9 14 24 24 33 17 15 21 15 67 -5 62 -26 144 -35 182 -20 18 8 37 29 52 57
12 25 27 47 34 49 6 2 23 6 38 9 14 3 40 17 55 30 26 22 30 33 32 83 2 56 5
67 19 69 19 1 79 33 90 47 16 19 32 83 24 92 -3 3 -7 14 -9 25 -1 11 -4 25 -5
31 -4 17 40 26 85 18 24 -4 37 -3 38 5 7 95 12 105 50 110 69 10 73 16 54 82
-5 16 1 24 29 39 40 22 54 49 36 70 -7 8 -10 15 -6 15 4 0 0 11 -9 24 -14 21
-14 24 1 37 9 7 25 18 37 24 38 19 43 40 20 82 -11 21 -18 44 -16 50 3 7 23
21 46 31 69 31 73 42 37 100 -16 27 -30 54 -30 59 0 5 16 18 35 29 37 20 71
61 60 72 -3 3 -18 8 -33 10 -52 7 -139 68 -121 86 8 8 61 17 124 22 74 5 116
11 141 21 44 18 84 48 84 63 0 16 -5 18 -55 21 -14 1 -28 6 -31 10 -3 5 -10 7
-15 4 -5 -4 -9 -2 -9 3 0 5 10 10 23 10 12 1 31 3 42 6 11 2 27 5 36 5 9 1 28
10 43 22 l27 21 -33 28 c-37 32 -32 47 18 56 64 11 137 36 187 65 62 37 111
83 105 101 -6 16 11 33 42 43 48 14 130 66 155 98 25 32 25 32 4 47 -20 16
-20 16 3 27 13 5 41 16 63 23 96 30 172 68 172 86 0 15 -28 28 -64 29 -13 0
-28 6 -35 14 -7 7 -8 11 -3 10 6 -1 24 3 40 10 17 7 37 14 45 16 84 20 301
120 297 138 -4 21 -15 23 -134 22 -65 -1 -131 1 -148 4 l-30 6 45 17 c25 9 61
19 80 22 37 5 185 43 210 53 8 3 18 5 23 5 4 -1 7 3 7 10 0 6 3 9 6 5 3 -3 23
1 45 8 21 8 39 11 39 7 0 -4 4 -2 8 3 4 6 19 16 33 22 14 6 29 20 32 31 4 19
1 20 -52 18 -31 -1 -61 -5 -67 -8 -5 -3 -33 -9 -63 -13 -30 -4 -63 -8 -74 -11
-10 -2 -45 -6 -76 -10 -31 -3 -65 -8 -76 -10 -11 -2 -45 -6 -75 -9 -30 -3 -66
-7 -80 -10 -14 -2 -56 -7 -95 -10 -38 -3 -95 -8 -125 -11 -112 -11 -409 -14
-415 -4 -3 5 -13 6 -22 3 -12 -5 -14 -3 -8 8 7 11 6 12 -6 3 -12 -10 -59 -3
-59 8 0 2 21 4 48 5 26 2 58 3 72 4 14 1 29 4 33 6 5 3 32 7 60 10 56 4 67 6
142 18 28 4 50 6 51 4 0 -2 9 3 19 11 11 8 16 10 12 4 -5 -8 5 -8 31 1 20 7
53 15 72 18 38 6 39 6 150 37 41 11 84 23 95 25 46 11 131 39 143 48 6 5 12 7
12 4 0 -3 37 8 83 24 45 17 103 37 128 45 50 15 89 48 67 56 -19 6 -84 2 -105
-7 -23 -10 -28 -11 -83 -20 -24 -4 -48 -9 -52 -11 -4 -3 -27 -7 -50 -9 -24 -3
-54 -7 -68 -10 -26 -5 -89 -15 -125 -19 -22 -3 -108 -16 -140 -22 -11 -2 -48
-6 -83 -10 -35 -3 -72 -7 -83 -9 -33 -7 -210 -18 -259 -16 -76 2 -79 2 -85 11
-6 10 7 20 37 25 72 13 176 37 198 45 14 6 36 12 50 14 14 3 25 5 25 6 0 1 7
3 15 5 8 1 42 10 75 19 33 9 68 19 79 21 10 2 25 10 34 17 8 7 17 12 19 11 1
-2 4 -3 6 -2 1 0 10 2 19 4 43 8 349 131 438 175 97 49 164 88 188 110 12 11
22 17 22 13 1 -4 10 9 21 30 11 22 19 40 17 42 -4 3 -94 -20 -133 -35 -16 -6
-31 -11 -33 -11 -1 1 -19 -6 -40 -15 -20 -8 -44 -17 -52 -19 -8 -2 -60 -20
-115 -40 -55 -19 -100 -35 -100 -34 0 0 -10 -3 -91 -30 -34 -11 -75 -23 -90
-26 -39 -8 -59 -13 -59 -15 0 -2 -14 -5 -53 -14 -13 -3 -37 -13 -55 -22 -18
-9 -50 -18 -72 -21 -21 -3 -56 -11 -76 -18 -21 -8 -40 -11 -43 -8 -3 4 -6 2
-6 -3 0 -5 -32 -10 -71 -12 -65 -3 -70 -2 -56 12 9 9 22 16 29 16 8 0 19 5 26
12 7 7 12 9 12 6 0 -4 50 11 112 33 61 21 114 37 116 34 3 -3 21 4 41 15 48
25 143 69 156 71 6 0 22 10 36 20 15 10 37 23 50 28 37 14 238 149 277 186 20
18 32 37 28 44 -8 13 -52 15 -60 2 -3 -5 -17 -12 -30 -15 -14 -3 -38 -11 -53
-18 -15 -6 -30 -12 -33 -13 -7 -2 -35 -13 -110 -42 -36 -14 -69 -26 -75 -28
-5 -1 -23 -7 -40 -14 -48 -19 -157 -58 -200 -72 -22 -7 -44 -16 -50 -20 -5 -3
-55 -21 -110 -38 -55 -18 -107 -35 -115 -38 -8 -4 -17 -7 -20 -8 -20 -6 -96
-29 -102 -31 -5 -1 -9 -2 -10 -4 -2 -1 -10 -3 -18 -5 -8 -1 -35 -8 -60 -15
-43 -12 -53 -14 -100 -24 -11 -3 -24 -7 -28 -10 -5 -3 -31 -8 -58 -12 -27 -3
-51 -8 -53 -10 -2 -2 -11 2 -19 9 -13 9 -14 9 -8 0 4 -7 2 -13 -3 -13 -17 0
-13 15 9 35 11 10 20 15 20 11 0 -4 13 2 29 13 16 12 33 21 39 21 5 0 15 7 22
15 7 9 15 13 18 10 3 -3 10 -1 16 4 6 5 34 21 61 36 28 16 52 31 55 35 3 4 21
15 40 25 128 65 426 295 530 408 19 21 60 65 91 98 30 32 54 59 52 59 -1 0 2
11 6 24 8 20 7 23 -12 20 -23 -2 -118 -43 -127 -53 -3 -3 -20 -14 -38 -23 -87
-46 -193 -105 -251 -140 -34 -21 -65 -38 -67 -38 -3 0 -62 -33 -132 -73 -109
-64 -180 -104 -267 -151 -11 -6 -22 -14 -25 -17 -3 -3 -20 -11 -37 -18 -18 -8
-33 -18 -33 -24 0 -6 -3 -8 -6 -5 -3 3 -38 -12 -77 -34 -90 -49 -271 -139
-289 -142 -7 -2 -21 -7 -31 -11 -38 -16 -38 12 -1 41 73 57 110 91 215 194
115 114 242 263 232 274 -3 3 -1 6 5 6 14 0 95 124 114 175 34 94 7 106 -85
37z m-522 -740 c-3 -3 -11 0 -18 7 -9 10 -8 11 6 5 10 -3 15 -9 12 -12z m910
-4402 c3 -5 1 -10 -4 -10 -6 0 -11 5 -11 10 0 6 2 10 4 10 3 0 8 -4 11 -10z
m-335 -48 c8 -2 24 -5 35 -6 25 -3 65 -24 65 -35 0 -14 -35 -8 -47 8 -6 9 -15
13 -18 9 -9 -8 -60 16 -71 33 -5 8 -3 9 7 3 8 -4 21 -10 29 -12z"/>
</g>
</svg>
