<?xml version="1.0" encoding="UTF-8" standalone="no"?>
<!DOCTYPE svg PUBLIC "-//W3C//DTD SVG 1.1//EN" "http://www.w3.org/Graphics/SVG/1.1/DTD/svg11.dtd">
<svg width="100%" height="100%" viewBox="0 0 6838 4350" version="1.1" xmlns="http://www.w3.org/2000/svg" xmlns:xlink="http://www.w3.org/1999/xlink" xml:space="preserve" style="fill-rule:evenodd;clip-rule:evenodd;stroke-linejoin:round;stroke-miterlimit:1.41421;">
    <g transform="matrix(4.16667,0,0,4.16667,0,0)">
        <path d="M1203.38,512.802C1086.94,566.758 957.115,603.204 794.075,603.204C632.294,603.204 493.772,563.867 385.918,513.546C386.147,511.686 386.404,509.855 386.662,508.024C502.383,552.997 642.737,579.345 794.075,579.345C945.901,579.345 1086.71,552.825 1202.69,507.595C1202.92,509.341 1203.15,511.056 1203.38,512.802Z" style="fill:rgb(242,237,235);fill-rule:nonzero;"/>
        <path d="M1203.63,515.033C1101.82,575.082 956.057,612.703 794.075,612.703C632.723,612.703 487.421,575.34 385.66,515.691C385.976,513.117 386.291,510.542 386.662,508.024C406.088,515.604 426.199,522.615 446.94,529.051C469.856,532.599 492.914,535.259 515.914,537.235C547.299,539.922 579.283,541.581 610.724,538.75C646.055,535.517 678.44,520.354 712.112,509.713C766.153,492.632 828.72,497.038 881.789,516.12C953.31,541.81 1007.44,556.572 1083.31,540.666C1123.56,532.228 1163.7,520.927 1202.6,507.08C1202.63,507.251 1202.66,507.423 1202.69,507.595C1202.92,509.341 1203.15,511.056 1203.38,512.802C1203.46,513.546 1203.55,514.289 1203.63,515.033Z" style="fill:rgb(242,237,235);fill-rule:nonzero;"/>
        <path d="M1226.89,549.845C1225.65,742.883 1035.56,896.088 853.469,918.824C832.97,921.384 812.311,922.647 791.653,922.647C554.126,922.647 352.06,755.49 361.572,549.783C369.202,384.807 445.467,339.952 535.13,261.196C641.935,167.383 661.459,159.754 787.333,159.754C920.942,159.754 932.989,163.166 1038.64,261.196C1079.21,298.84 1129.33,319.145 1163.93,364.11C1197.57,407.823 1219.17,460.816 1225.14,515.68C1226.39,527.191 1226.96,538.586 1226.89,549.845Z" style="fill:rgb(203,195,192);fill-rule:nonzero;"/>
        <path d="M1205.52,549.418C1204.34,732.925 1023.63,878.565 850.537,900.18C831.049,902.612 811.41,903.813 791.773,903.813C565.973,903.813 373.884,744.909 382.927,549.36C390.179,392.529 462.679,349.888 547.916,275.02C649.447,185.84 668.007,178.588 787.666,178.588C914.678,178.588 926.13,181.831 1026.56,275.021C1065.13,310.807 1112.78,330.109 1145.67,372.854C1177.64,414.408 1198.18,464.785 1203.85,516.94C1205.04,527.884 1205.59,538.715 1205.52,549.418Z" style="fill:rgb(242,237,235);fill-rule:nonzero;"/>
        <path d="M1203.63,515.033C1101.82,575.082 956.057,612.703 794.075,612.703C632.723,612.703 487.421,575.34 385.66,515.691C385.976,513.117 386.291,510.542 386.662,508.024C406.088,515.604 426.199,522.615 446.94,529.051C549.816,561.093 668.141,579.345 794.075,579.345C945.901,579.345 1086.71,552.825 1202.69,507.595C1202.92,509.341 1203.15,511.056 1203.38,512.802C1203.46,513.546 1203.55,514.289 1203.63,515.033Z" style="fill:rgb(203,195,192);fill-rule:nonzero;"/>
        <path d="M1203.38,512.802C1086.94,566.758 957.115,603.204 794.075,603.204C632.294,603.204 493.772,563.867 385.918,513.546C386.147,511.686 386.404,509.855 386.662,508.024C502.383,552.997 642.737,579.345 794.075,579.345C945.901,579.345 1086.71,552.825 1202.69,507.595C1202.92,509.341 1203.15,511.056 1203.38,512.802Z" style="fill:white;fill-rule:nonzero;"/>
        <path d="M706.267,691.084L654.154,691.084C650.475,691.084 647.179,689.182 645.339,685.995C643.5,682.809 643.5,679.005 645.339,675.818L671.396,630.686C673.236,627.501 676.531,625.599 680.211,625.599C683.89,625.599 687.185,627.501 689.024,630.686L715.081,675.818C716.921,679.005 716.921,682.809 715.081,685.995C713.242,689.182 709.946,691.084 706.267,691.084ZM680.211,631.32C678.6,631.32 677.157,632.153 676.352,633.548L650.296,678.679C649.49,680.074 649.49,681.739 650.296,683.135C651.1,684.529 652.544,685.362 654.154,685.362L706.267,685.362C707.877,685.362 709.321,684.529 710.125,683.135C710.931,681.739 710.931,680.074 710.125,678.679L684.068,633.548C683.264,632.153 681.821,631.32 680.211,631.32Z" style="fill:rgb(104,92,90);fill-rule:nonzero;"/>
        <path d="M679.582,681.509C678.478,681.509 677.626,681.161 677.026,680.466C676.427,679.771 676.127,678.847 676.127,677.695C676.127,676.328 676.499,675.345 677.243,674.744C677.986,674.146 679.017,673.845 680.337,673.845C681.489,673.845 682.353,674.181 682.929,674.853C683.504,675.524 683.792,676.472 683.792,677.695C683.792,678.99 683.432,679.95 682.712,680.573C681.992,681.197 680.949,681.509 679.582,681.509ZM679.093,668.995C678.92,668.995 678.801,668.963 678.737,668.898C678.651,668.813 678.598,668.64 678.574,668.376L677.171,639.481L677.171,639.374C677.171,638.893 677.458,638.595 678.034,638.475C678.418,638.402 678.88,638.343 679.419,638.294C679.96,638.246 680.499,638.204 681.039,638.168C681.579,638.133 682.064,638.103 682.497,638.078C682.929,638.055 683.24,638.042 683.432,638.042C683.672,638.042 683.876,638.103 684.043,638.222C684.21,638.343 684.295,638.523 684.295,638.762L684.295,638.941L681.525,668.195C681.501,668.46 681.447,668.634 681.362,668.718C681.279,668.802 681.129,668.855 680.913,668.88L679.258,668.987C679.198,668.993 679.143,668.995 679.093,668.995Z" style="fill:rgb(90,79,77);fill-rule:nonzero;"/>
        <path d="M772.095,681.509L766.868,681.509L761.134,658.06L755.18,681.509L750.026,681.509L739.719,646.083L746.397,646.083L752.567,670.838L758.666,646.083L763.457,646.083L769.41,670.838L775.652,646.083L782.403,646.083L772.095,681.509Z" style="fill:rgb(90,79,77);fill-rule:nonzero;"/>
        <path d="M817.609,681.509L810.35,681.509L806.503,672.362L793.943,672.362L790.023,681.509L782.836,681.509L797.572,646.083L802.727,646.083L817.609,681.509ZM800.186,655.23L796.339,665.974L803.962,665.974L800.186,655.23Z" style="fill:rgb(90,79,77);fill-rule:nonzero;"/>
        <path d="M845.119,681.509L836.988,681.509L827.697,667.933L827.697,681.509L821.163,681.509L821.163,646.083L831.398,646.083C839.021,646.083 844.755,650.003 844.755,657.335C844.755,663.288 840.472,667.426 835.535,668.442L845.119,681.509ZM827.697,652.471L827.697,662.997L831.325,662.997C835.609,662.997 838.15,661.037 838.15,657.625C838.15,654.213 835.609,652.471 831.325,652.471L827.697,652.471Z" style="fill:rgb(90,79,77);fill-rule:nonzero;"/>
        <path d="M877.64,681.509L870.38,681.509L855.498,655.737L855.498,681.509L848.965,681.509L848.965,646.083L856.369,646.083L871.107,671.999L871.107,646.083L877.64,646.083L877.64,681.509Z" style="fill:rgb(90,79,77);fill-rule:nonzero;"/>
        <rect x="884.388" y="646.083" width="6.533" height="35.426" style="fill:rgb(90,79,77);fill-rule:nonzero;"/>
        <path d="M926.492,681.509L919.233,681.509L904.351,655.737L904.351,681.509L897.818,681.509L897.818,646.083L905.221,646.083L919.958,671.999L919.958,646.083L926.492,646.083L926.492,681.509Z" style="fill:rgb(90,79,77);fill-rule:nonzero;"/>
        <path d="M950.299,682.381C940.137,682.381 931.424,674.394 931.424,664.014C931.424,653.56 940.209,645.43 950.227,645.43C957.413,645.43 964.818,649.93 967.36,656.464L959.519,656.464C957.413,653.56 953.784,651.817 950.227,651.817C943.62,651.817 937.957,657.263 937.957,663.796C937.957,670.402 944.057,675.992 950.517,675.992C954.655,675.992 959.01,673.305 960.899,669.603L946.089,669.603L946.089,663.433L969.174,663.433L969.174,664.231C969.174,674.468 960.463,682.381 950.299,682.381Z" style="fill:rgb(90,79,77);fill-rule:nonzero;"/>
        <rect x="661.961" y="714.825" width="280.363" height="19.374" style="fill:rgb(187,175,171);fill-rule:nonzero;"/>
        <rect x="661.961" y="768.474" width="280.363" height="19.374" style="fill:rgb(187,175,171);fill-rule:nonzero;"/>
        <rect x="609.036" y="741.649" width="386.214" height="19.374" style="fill:rgb(187,175,171);fill-rule:nonzero;"/>
        <path d="M1076.36,777.042L1020.45,777.042C1016.27,777.042 1012.88,773.645 1012.88,769.47L1012.88,649.785C1012.88,645.61 1016.27,642.213 1020.45,642.213L1076.36,642.213C1080.54,642.213 1083.94,645.61 1083.94,649.785L1083.94,769.47C1083.94,773.645 1080.54,777.042 1076.36,777.042ZM1020.45,646.208C1018.48,646.208 1016.87,647.812 1016.87,649.785L1016.87,769.47C1016.87,771.443 1018.48,773.047 1020.45,773.047L1076.36,773.047C1078.34,773.047 1079.94,771.443 1079.94,769.47L1079.94,649.785C1079.94,647.812 1078.34,646.208 1076.36,646.208L1020.45,646.208Z" style="fill:rgb(90,79,77);fill-rule:nonzero;"/>
        <path d="M1066.23,756.394L1029.79,756.394L1029.79,748.776L1056.45,733.617L1029.79,733.617L1029.79,726.896L1066.23,726.896L1066.23,734.365L1039.72,749.673L1066.23,749.673L1066.23,756.394Z" style="fill:rgb(90,79,77);fill-rule:nonzero;"/>
        <path d="M1041.76,721.801C1033.64,721.801 1028.41,715.355 1028.41,707.044C1028.41,698.638 1033.54,692.381 1041.48,692.381C1047.83,692.381 1055.3,697.704 1066.23,706.111L1066.23,713.394L1052.13,703.308C1052.88,705.362 1053.34,707.323 1053.34,709.378C1053.34,716.289 1048.3,721.801 1041.76,721.801ZM1040.92,699.012C1037.28,699.012 1034.2,702.748 1034.2,707.044C1034.2,711.434 1037.19,715.075 1040.92,715.075C1044.66,715.075 1047.74,711.434 1047.74,707.044C1047.74,702.468 1044.56,699.012 1040.92,699.012Z" style="fill:rgb(90,79,77);fill-rule:nonzero;"/>
        <path d="M1063.24,686.498L1057.73,685.471C1059.88,682.576 1060.91,679.494 1060.91,675.946C1060.91,670.622 1058.01,667.352 1053.9,667.352C1049.14,667.352 1046.52,671.462 1046.52,676.505C1046.52,678.935 1047.09,681.269 1048.21,683.695L1028.87,680.707L1028.87,663.244L1034.2,663.244L1034.2,675.478L1041.39,676.505C1041.3,675.758 1041.2,675.104 1041.2,674.355C1041.2,666.98 1046.25,661.188 1053.16,661.188C1061.19,661.188 1066.7,667.166 1066.7,675.946C1066.7,680.896 1065.76,682.95 1063.24,686.498Z" style="fill:rgb(90,79,77);fill-rule:nonzero;"/>
        <path d="M531.46,678.665L531.46,678.413C532.212,678.559 532.983,678.635 533.768,678.635C534.623,678.635 535.447,678.595 536.24,678.517L536.24,678.635L532.335,678.635C532.041,678.635 531.749,678.645 531.46,678.665ZM540.818,678.635L538.664,678.635L538.664,678.145C539.415,677.984 540.132,677.787 540.818,677.553L540.818,678.635Z" style="fill:rgb(90,80,78);fill-rule:nonzero;"/>
        <path d="M562.442,704.752C561.272,704.752 560.097,704.341 559.153,703.505L556.034,700.744L556.034,691.292C556.034,686.949 553.846,683.116 550.513,680.837C550.883,681.05 551.238,681.303 551.57,681.598L566.694,694.984C568.747,696.803 568.939,699.94 567.121,701.994L566.161,703.078C565.18,704.186 563.814,704.752 562.442,704.752Z" style="fill:rgb(90,80,78);fill-rule:nonzero;"/>
        <path d="M513.096,704.752C511.723,704.752 510.357,704.186 509.376,703.078L508.416,701.994C506.599,699.94 506.79,696.803 508.843,694.984L523.966,681.598C524.514,681.114 525.12,680.74 525.759,680.475C522.112,682.696 519.677,686.71 519.677,691.292L519.677,700.59L516.385,703.505C515.44,704.341 514.266,704.752 513.096,704.752Z" style="fill:rgb(90,80,78);fill-rule:nonzero;"/>
        <path d="M533.768,678.635C532.983,678.635 532.212,678.559 531.46,678.413C524.413,677.047 519.024,669.528 519.024,660.456C519.024,657.208 519.715,654.16 520.925,651.521C521.242,651.704 521.427,651.704 521.427,651.704L537.856,642.577L537.855,642.577C547.865,644.128 551.846,651.543 551.846,660.456C551.846,668.321 548.25,675.02 540.818,677.553C540.132,677.787 539.415,677.984 538.664,678.145L538.664,672.306C538.664,663.393 532.185,662.362 527.311,662.362L519.111,662.362C519.182,663.188 519.302,663.996 519.459,664.785L527.311,664.785C533.736,664.785 536.24,666.895 536.24,672.306L536.24,678.517C535.447,678.595 534.623,678.635 533.768,678.635Z" style="fill:rgb(90,80,78);fill-rule:nonzero;"/>
        <path d="M556.034,720.916L519.677,720.916L519.677,700.59L519.677,691.292C519.677,686.71 522.112,682.696 525.759,680.475C527.441,679.45 529.382,678.806 531.46,678.665C531.749,678.645 532.041,678.635 532.335,678.635L536.24,678.635L536.24,689.003L535.332,689.003C535.114,686.49 534.465,684.896 532.657,684.896C529.382,684.896 523.541,690.126 523.541,696.577C523.541,703.028 526.196,708.259 529.472,708.259C532.748,708.259 535.403,703.028 535.403,696.577C535.403,696.543 535.403,696.51 535.403,696.476L539.462,696.476C539.462,696.51 539.462,696.543 539.462,696.577C539.462,703.028 542.117,708.259 545.393,708.259C548.669,708.259 551.324,703.028 551.324,696.577C551.324,690.126 545.483,684.896 542.208,684.896C540.4,684.896 539.751,686.49 539.532,689.003L538.664,689.003L538.664,678.635L543.377,678.635C546.024,678.635 548.481,679.448 550.513,680.837C553.846,683.116 556.034,686.949 556.034,691.292L556.034,720.916Z" style="fill:rgb(90,80,78);fill-rule:nonzero;"/>
        <path d="M521.427,651.704C521.427,651.704 521.242,651.704 520.925,651.521C520.268,651.143 519.052,649.982 517.758,646.419C515.978,641.513 518.062,637.161 518.062,637.161C518.062,637.161 522.302,641.335 527.757,641.335C531.044,641.335 537.803,642.567 537.855,642.577L537.856,642.577L521.427,651.704Z" style="fill:rgb(90,80,78);fill-rule:nonzero;"/>
        <path d="M545.393,708.259C542.117,708.259 539.462,703.028 539.462,696.577C539.462,696.543 539.462,696.51 539.462,696.476L542.703,696.476L542.703,689.003L539.532,689.003C539.751,686.49 540.4,684.896 542.208,684.896C545.483,684.896 551.324,690.126 551.324,696.577C551.324,703.028 548.669,708.259 545.393,708.259Z" style="fill:rgb(249,248,247);fill-rule:nonzero;"/>
        <path d="M529.472,708.259C526.196,708.259 523.541,703.028 523.541,696.577C523.541,690.126 529.382,684.896 532.657,684.896C534.465,684.896 535.114,686.49 535.332,689.003L531.931,689.003L531.931,696.476L535.403,696.476C535.403,696.51 535.403,696.543 535.403,696.577C535.403,703.028 532.748,708.259 529.472,708.259Z" style="fill:rgb(249,248,247);fill-rule:nonzero;"/>
        <path d="M542.703,696.476L539.462,696.476L535.403,696.476L531.931,696.476L531.931,689.003L536.24,689.003L536.24,693.985L538.664,693.985L538.664,689.003L542.703,689.003L542.703,696.476Z" style="fill:rgb(249,248,247);fill-rule:nonzero;"/>
        <path d="M487.178,728.433C486.504,728.433 485.958,727.888 485.958,727.214C485.958,726.541 486.504,725.995 487.178,725.995C487.851,725.995 488.397,726.541 488.397,727.214C488.397,727.888 487.851,728.433 487.178,728.433Z" style="fill:rgb(90,80,78);fill-rule:nonzero;"/>
        <path d="M487.178,732.988C486.321,732.988 485.626,732.293 485.626,731.437C485.626,730.579 486.321,729.885 487.178,729.885C488.035,729.885 488.729,730.579 488.729,731.437C488.729,732.293 488.035,732.988 487.178,732.988Z" style="fill:rgb(90,80,78);fill-rule:nonzero;"/>
        <path d="M487.178,736.799C486.548,736.799 486.038,736.288 486.038,735.658C486.038,735.028 486.548,734.519 487.178,734.519C487.808,734.519 488.318,735.028 488.318,735.658C488.318,736.288 487.808,736.799 487.178,736.799Z" style="fill:rgb(90,80,78);fill-rule:nonzero;"/>
        <path d="M487.178,740.909C486.609,740.909 486.149,740.449 486.149,739.881C486.149,739.313 486.609,738.851 487.178,738.851C487.746,738.851 488.207,739.313 488.207,739.881C488.207,740.449 487.746,740.909 487.178,740.909Z" style="fill:rgb(90,80,78);fill-rule:nonzero;"/>
        <path d="M487.178,745.322C486.504,745.322 485.958,744.776 485.958,744.102C485.958,743.43 486.504,742.884 487.178,742.884C487.851,742.884 488.397,743.43 488.397,744.102C488.397,744.776 487.851,745.322 487.178,745.322Z" style="fill:rgb(90,80,78);fill-rule:nonzero;"/>
        <path d="M487.178,749.417C486.574,749.417 486.085,748.928 486.085,748.325C486.085,747.722 486.574,747.232 487.178,747.232C487.781,747.232 488.27,747.722 488.27,748.325C488.27,748.928 487.781,749.417 487.178,749.417Z" style="fill:rgb(90,80,78);fill-rule:nonzero;"/>
        <path d="M487.178,753.497C486.653,753.497 486.228,753.071 486.228,752.547C486.228,752.022 486.653,751.597 487.178,751.597C487.702,751.597 488.128,752.022 488.128,752.547C488.128,753.071 487.702,753.497 487.178,753.497Z" style="fill:rgb(90,80,78);fill-rule:nonzero;"/>
        <path d="M487.178,757.925C486.539,757.925 486.022,757.407 486.022,756.769C486.022,756.131 486.539,755.613 487.178,755.613C487.816,755.613 488.333,756.131 488.333,756.769C488.333,757.407 487.816,757.925 487.178,757.925Z" style="fill:rgb(90,80,78);fill-rule:nonzero;"/>
        <path d="M491.224,728.766C490.367,728.766 489.672,728.071 489.672,727.214C489.672,726.357 490.367,725.662 491.224,725.662C492.081,725.662 492.776,726.357 492.776,727.214C492.776,728.071 492.081,728.766 491.224,728.766Z" style="fill:rgb(90,80,78);fill-rule:nonzero;"/>
        <path d="M545.155,731.246C544.385,731.246 543.762,730.622 543.762,729.852C543.762,729.083 544.385,728.46 545.155,728.46C545.925,728.46 546.548,729.083 546.548,729.852C546.548,730.622 545.925,731.246 545.155,731.246Z" style="fill:rgb(90,80,78);fill-rule:nonzero;"/>
        <path d="M494.962,728.401C494.306,728.401 493.775,727.87 493.775,727.214C493.775,726.559 494.306,726.026 494.962,726.026C495.618,726.026 496.15,726.559 496.15,727.214C496.15,727.87 495.618,728.401 494.962,728.401Z" style="fill:rgb(90,80,78);fill-rule:nonzero;"/>
        <path d="M499.009,728.401C498.353,728.401 497.821,727.87 497.821,727.214C497.821,726.559 498.353,726.026 499.009,726.026C499.664,726.026 500.196,726.559 500.196,727.214C500.196,727.87 499.664,728.401 499.009,728.401Z" style="fill:rgb(90,80,78);fill-rule:nonzero;"/>
        <path d="M502.175,731.41C501.607,731.41 501.146,730.949 501.146,730.381C501.146,729.813 501.607,729.352 502.175,729.352C502.743,729.352 503.204,729.813 503.204,730.381C503.204,730.949 502.743,731.41 502.175,731.41Z" style="fill:rgb(90,80,78);fill-rule:nonzero;"/>
        <path d="M504.814,735.727C504.193,735.727 503.69,735.224 503.69,734.602C503.69,733.982 504.193,733.479 504.814,733.479C505.435,733.479 505.938,733.982 505.938,734.602C505.938,735.224 505.435,735.727 504.814,735.727Z" style="fill:rgb(90,80,78);fill-rule:nonzero;"/>
        <path d="M503.054,739.58C502.346,739.58 501.772,739.006 501.772,738.297C501.772,737.589 502.346,737.015 503.054,737.015C503.763,737.015 504.337,737.589 504.337,738.297C504.337,739.006 503.763,739.58 503.054,739.58Z" style="fill:rgb(90,80,78);fill-rule:nonzero;"/>
        <path d="M491.224,732.624C490.568,732.624 490.036,732.092 490.036,731.437C490.036,730.78 490.568,730.249 491.224,730.249C491.88,730.249 492.411,730.78 492.411,731.437C492.411,732.092 491.88,732.624 491.224,732.624Z" style="fill:rgb(90,80,78);fill-rule:nonzero;"/>
        <path d="M544.913,735.922C544.039,735.922 543.33,735.213 543.33,734.339C543.33,733.465 544.039,732.756 544.913,732.756C545.788,732.756 546.496,733.465 546.496,734.339C546.496,735.213 545.788,735.922 544.913,735.922Z" style="fill:rgb(90,80,78);fill-rule:nonzero;"/>
        <path d="M548.607,728.639C547.82,728.639 547.182,728.001 547.182,727.214C547.182,726.427 547.82,725.789 548.607,725.789C549.394,725.789 550.032,726.427 550.032,727.214C550.032,728.001 549.394,728.639 548.607,728.639Z" style="fill:rgb(90,80,78);fill-rule:nonzero;"/>
        <path d="M549.795,732.56C549.174,732.56 548.671,732.057 548.671,731.437C548.671,730.815 549.174,730.312 549.795,730.312C550.416,730.312 550.919,730.815 550.919,731.437C550.919,732.057 550.416,732.56 549.795,732.56Z" style="fill:rgb(90,80,78);fill-rule:nonzero;"/>
        <path d="M552.236,728.08C551.466,728.08 550.843,727.456 550.843,726.687C550.843,725.917 551.466,725.293 552.236,725.293C553.005,725.293 553.629,725.917 553.629,726.687C553.629,727.456 553.005,728.08 552.236,728.08Z" style="fill:rgb(90,80,78);fill-rule:nonzero;"/>
        <path d="M554.237,731.6C553.564,731.6 553.018,731.054 553.018,730.381C553.018,729.707 553.564,729.161 554.237,729.161C554.91,729.161 555.456,729.707 555.456,730.381C555.456,731.054 554.91,731.6 554.237,731.6Z" style="fill:rgb(90,80,78);fill-rule:nonzero;"/>
        <path d="M556.7,728.576C555.948,728.576 555.338,727.966 555.338,727.214C555.338,726.462 555.948,725.852 556.7,725.852C557.452,725.852 558.061,726.462 558.061,727.214C558.061,727.966 557.452,728.576 556.7,728.576Z" style="fill:rgb(90,80,78);fill-rule:nonzero;"/>
        <path d="M560.658,731.52C560.028,731.52 559.518,731.011 559.518,730.381C559.518,729.751 560.028,729.24 560.658,729.24C561.288,729.24 561.798,729.751 561.798,730.381C561.798,731.011 561.288,731.52 560.658,731.52Z" style="fill:rgb(90,80,78);fill-rule:nonzero;"/>
        <path d="M562.703,735.373C561.986,735.373 561.405,734.792 561.405,734.075C561.405,733.358 561.986,732.776 562.703,732.776C563.42,732.776 564.002,733.358 564.002,734.075C564.002,734.792 563.42,735.373 562.703,735.373Z" style="fill:rgb(90,80,78);fill-rule:nonzero;"/>
        <path d="M552.807,744.33C552.099,744.33 551.525,743.756 551.525,743.047C551.525,742.339 552.099,741.765 552.807,741.765C553.516,741.765 554.09,742.339 554.09,743.047C554.09,743.756 553.516,744.33 552.807,744.33Z" style="fill:rgb(90,80,78);fill-rule:nonzero;"/>
        <path d="M544.561,757.846C543.966,757.846 543.484,757.363 543.484,756.769C543.484,756.175 543.966,755.692 544.561,755.692C545.156,755.692 545.638,756.175 545.638,756.769C545.638,757.363 545.156,757.846 544.561,757.846Z" style="fill:rgb(90,80,78);fill-rule:nonzero;"/>
        <path d="M546.364,748.742C545.551,748.742 544.892,748.082 544.892,747.269C544.892,746.456 545.551,745.797 546.364,745.797C547.177,745.797 547.836,746.456 547.836,747.269C547.836,748.082 547.177,748.742 546.364,748.742Z" style="fill:rgb(90,80,78);fill-rule:nonzero;"/>
        <path d="M557.579,734.877C556.845,734.877 556.249,734.282 556.249,733.547C556.249,732.813 556.845,732.218 557.579,732.218C558.314,732.218 558.909,732.813 558.909,733.547C558.909,734.282 558.314,734.877 557.579,734.877Z" style="fill:rgb(90,80,78);fill-rule:nonzero;"/>
        <path d="M550.059,748.361C549.455,748.361 548.966,747.873 548.966,747.269C548.966,746.666 549.455,746.177 550.059,746.177C550.662,746.177 551.151,746.666 551.151,747.269C551.151,747.873 550.662,748.361 550.059,748.361Z" style="fill:rgb(90,80,78);fill-rule:nonzero;"/>
        <path d="M548.607,752.52C548.039,752.52 547.578,752.06 547.578,751.491C547.578,750.923 548.039,750.462 548.607,750.462C549.176,750.462 549.637,750.923 549.637,751.491C549.637,752.06 549.176,752.52 548.607,752.52Z" style="fill:rgb(90,80,78);fill-rule:nonzero;"/>
        <path d="M548.607,757.809C547.742,757.809 547.04,757.107 547.04,756.241C547.04,755.376 547.742,754.674 548.607,754.674C549.473,754.674 550.175,755.376 550.175,756.241C550.175,757.107 549.473,757.809 548.607,757.809Z" style="fill:rgb(90,80,78);fill-rule:nonzero;"/>
        <path d="M552.653,757.777C551.805,757.777 551.118,757.09 551.118,756.241C551.118,755.393 551.805,754.705 552.653,754.705C553.502,754.705 554.189,755.393 554.189,756.241C554.189,757.09 553.502,757.777 552.653,757.777Z" style="fill:rgb(90,80,78);fill-rule:nonzero;"/>
        <path d="M556.7,757.365C556.079,757.365 555.576,756.862 555.576,756.241C555.576,755.62 556.079,755.117 556.7,755.117C557.32,755.117 557.824,755.62 557.824,756.241C557.824,756.862 557.32,757.365 556.7,757.365Z" style="fill:rgb(90,80,78);fill-rule:nonzero;"/>
        <path d="M560.746,757.461C560.072,757.461 559.527,756.915 559.527,756.241C559.527,755.568 560.072,755.023 560.746,755.023C561.419,755.023 561.965,755.568 561.965,756.241C561.965,756.915 561.419,757.461 560.746,757.461Z" style="fill:rgb(90,80,78);fill-rule:nonzero;"/>
        <path d="M566.925,757.54C566.208,757.54 565.627,756.958 565.627,756.241C565.627,755.524 566.208,754.943 566.925,754.943C567.642,754.943 568.224,755.524 568.224,756.241C568.224,756.958 567.642,757.54 566.925,757.54Z" style="fill:rgb(90,80,78);fill-rule:nonzero;"/>
        <path d="M556.7,742.794C555.965,742.794 555.37,742.198 555.37,741.464C555.37,740.73 555.965,740.134 556.7,740.134C557.434,740.134 558.03,740.73 558.03,741.464C558.03,742.198 557.434,742.794 556.7,742.794Z" style="fill:rgb(90,80,78);fill-rule:nonzero;"/>
        <path d="M544.561,752.648C543.922,752.648 543.406,752.13 543.406,751.491C543.406,750.854 543.922,750.336 544.561,750.336C545.2,750.336 545.717,750.854 545.717,751.491C545.717,752.13 545.2,752.648 544.561,752.648Z" style="fill:rgb(90,80,78);fill-rule:nonzero;"/>
        <path d="M548.915,745.183C548.233,745.183 547.68,744.631 547.68,743.948C547.68,743.267 548.233,742.714 548.915,742.714C549.598,742.714 550.15,743.267 550.15,743.948C550.15,744.631 549.598,745.183 548.915,745.183Z" style="fill:rgb(90,80,78);fill-rule:nonzero;"/>
        <path d="M560.152,738.535C559.584,738.535 559.123,738.074 559.123,737.506C559.123,736.938 559.584,736.477 560.152,736.477C560.721,736.477 561.181,736.938 561.181,737.506C561.181,738.074 560.721,738.535 560.152,738.535Z" style="fill:rgb(90,80,78);fill-rule:nonzero;"/>
        <path d="M572.15,754.885C571.441,754.885 570.867,754.311 570.867,753.603C570.867,752.894 571.441,752.32 572.15,752.32C572.857,752.32 573.432,752.894 573.432,753.603C573.432,754.311 572.857,754.885 572.15,754.885Z" style="fill:rgb(90,80,78);fill-rule:nonzero;"/>
        <path d="M571.907,750.541C571.121,750.541 570.483,749.904 570.483,749.116C570.483,748.329 571.121,747.692 571.907,747.692C572.694,747.692 573.333,748.329 573.333,749.116C573.333,749.904 572.694,750.541 571.907,750.541Z" style="fill:rgb(90,80,78);fill-rule:nonzero;"/>
        <path d="M575.602,757.286C575.025,757.286 574.557,756.818 574.557,756.241C574.557,755.664 575.025,755.196 575.602,755.196C576.179,755.196 576.647,755.664 576.647,756.241C576.647,756.818 576.179,757.286 575.602,757.286Z" style="fill:rgb(90,80,78);fill-rule:nonzero;"/>
        <path d="M575.47,752.964C574.657,752.964 573.998,752.305 573.998,751.491C573.998,750.678 574.657,750.018 575.47,750.018C576.283,750.018 576.943,750.678 576.943,751.491C576.943,752.305 576.283,752.964 575.47,752.964Z" style="fill:rgb(90,80,78);fill-rule:nonzero;"/>
        <path d="M575.91,748.81C575.35,748.81 574.897,748.356 574.897,747.797C574.897,747.237 575.35,746.784 575.91,746.784C576.47,746.784 576.923,747.237 576.923,747.797C576.923,748.356 576.47,748.81 575.91,748.81Z" style="fill:rgb(90,80,78);fill-rule:nonzero;"/>
        <path d="M579.23,758.226C578.426,758.226 577.774,757.573 577.774,756.769C577.774,755.965 578.426,755.312 579.23,755.312C580.035,755.312 580.687,755.965 580.687,756.769C580.687,757.573 580.035,758.226 579.23,758.226Z" style="fill:rgb(90,80,78);fill-rule:nonzero;"/>
        <path d="M583.694,757.714C582.881,757.714 582.222,757.055 582.222,756.241C582.222,755.428 582.881,754.768 583.694,754.768C584.507,754.768 585.167,755.428 585.167,756.241C585.167,757.055 584.507,757.714 583.694,757.714Z" style="fill:rgb(90,80,78);fill-rule:nonzero;"/>
        <path d="M587.653,754.072C587.102,754.072 586.655,753.626 586.655,753.074C586.655,752.524 587.102,752.077 587.653,752.077C588.204,752.077 588.65,752.524 588.65,753.074C588.65,753.626 588.204,754.072 587.653,754.072Z" style="fill:rgb(90,80,78);fill-rule:nonzero;"/>
        <path d="M589.698,750.505C589.077,750.505 588.573,750.001 588.573,749.38C588.573,748.76 589.077,748.256 589.698,748.256C590.319,748.256 590.822,748.76 590.822,749.38C590.822,750.001 590.319,750.505 589.698,750.505Z" style="fill:rgb(90,80,78);fill-rule:nonzero;"/>
        <path d="M579.802,739.822C579.251,739.822 578.805,739.376 578.805,738.825C578.805,738.275 579.251,737.827 579.802,737.827C580.353,737.827 580.8,738.275 580.8,738.825C580.8,739.376 580.353,739.822 579.802,739.822Z" style="fill:rgb(90,80,78);fill-rule:nonzero;"/>
        <path d="M571.556,728.254C570.69,728.254 569.989,727.552 569.989,726.687C569.989,725.82 570.69,725.119 571.556,725.119C572.421,725.119 573.123,725.82 573.123,726.687C573.123,727.552 572.421,728.254 571.556,728.254Z" style="fill:rgb(90,80,78);fill-rule:nonzero;"/>
        <path d="M573.359,737.278C572.756,737.278 572.266,736.789 572.266,736.187C572.266,735.583 572.756,735.094 573.359,735.094C573.962,735.094 574.451,735.583 574.451,736.187C574.451,736.789 573.962,737.278 573.359,737.278Z" style="fill:rgb(90,80,78);fill-rule:nonzero;"/>
        <path d="M577.054,737.168C576.512,737.168 576.071,736.729 576.071,736.187C576.071,735.643 576.512,735.204 577.054,735.204C577.596,735.204 578.035,735.643 578.035,736.187C578.035,736.729 577.596,737.168 577.054,737.168Z" style="fill:rgb(90,80,78);fill-rule:nonzero;"/>
        <path d="M575.602,733.547C574.728,733.547 574.019,732.839 574.019,731.964C574.019,731.09 574.728,730.381 575.602,730.381C576.476,730.381 577.185,731.09 577.185,731.964C577.185,732.839 576.476,733.547 575.602,733.547Z" style="fill:rgb(90,80,78);fill-rule:nonzero;"/>
        <path d="M575.602,728.228C575.042,728.228 574.589,727.774 574.589,727.214C574.589,726.654 575.042,726.201 575.602,726.201C576.162,726.201 576.615,726.654 576.615,727.214C576.615,727.774 576.162,728.228 575.602,728.228Z" style="fill:rgb(90,80,78);fill-rule:nonzero;"/>
        <path d="M579.648,728.212C579.098,728.212 578.65,727.765 578.65,727.214C578.65,726.663 579.098,726.217 579.648,726.217C580.199,726.217 580.646,726.663 580.646,727.214C580.646,727.765 580.199,728.212 579.648,728.212Z" style="fill:rgb(90,80,78);fill-rule:nonzero;"/>
        <path d="M583.694,728.686C582.881,728.686 582.222,728.027 582.222,727.214C582.222,726.4 582.881,725.741 583.694,725.741C584.507,725.741 585.167,726.4 585.167,727.214C585.167,728.027 584.507,728.686 583.694,728.686Z" style="fill:rgb(90,80,78);fill-rule:nonzero;"/>
        <path d="M587.741,728.433C587.068,728.433 586.522,727.888 586.522,727.214C586.522,726.541 587.068,725.995 587.741,725.995C588.414,725.995 588.96,726.541 588.96,727.214C588.96,727.888 588.414,728.433 587.741,728.433Z" style="fill:rgb(90,80,78);fill-rule:nonzero;"/>
        <path d="M583.694,740.98C582.881,740.98 582.222,740.32 582.222,739.507C582.222,738.693 582.881,738.034 583.694,738.034C584.507,738.034 585.167,738.693 585.167,739.507C585.167,740.32 584.507,740.98 583.694,740.98Z" style="fill:rgb(90,80,78);fill-rule:nonzero;"/>
        <path d="M571.556,733.436C570.742,733.436 570.083,732.777 570.083,731.964C570.083,731.15 570.742,730.491 571.556,730.491C572.369,730.491 573.028,731.15 573.028,731.964C573.028,732.777 572.369,733.436 571.556,733.436Z" style="fill:rgb(90,80,78);fill-rule:nonzero;"/>
        <path d="M575.91,740.488C575.368,740.488 574.929,740.049 574.929,739.507C574.929,738.965 575.368,738.525 575.91,738.525C576.452,738.525 576.891,738.965 576.891,739.507C576.891,740.049 576.452,740.488 575.91,740.488Z" style="fill:rgb(90,80,78);fill-rule:nonzero;"/>
        <path d="M572.15,740.839C571.512,740.839 570.994,740.321 570.994,739.683C570.994,739.044 571.512,738.526 572.15,738.526C572.788,738.526 573.305,739.044 573.305,739.683C573.305,740.321 572.788,740.839 572.15,740.839Z" style="fill:rgb(90,80,78);fill-rule:nonzero;"/>
        <path d="M590.213,746.646C589.391,746.646 588.725,745.98 588.725,745.158C588.725,744.336 589.391,743.67 590.213,743.67C591.035,743.67 591.701,744.336 591.701,745.158C591.701,745.98 591.035,746.646 590.213,746.646Z" style="fill:rgb(90,80,78);fill-rule:nonzero;"/>
        <path d="M588.115,743.163C587.467,743.163 586.943,742.639 586.943,741.991C586.943,741.345 587.467,740.82 588.115,740.82C588.761,740.82 589.286,741.345 589.286,741.991C589.286,742.639 588.761,743.163 588.115,743.163Z" style="fill:rgb(90,80,78);fill-rule:nonzero;"/>
        <path d="M491.224,736.894C490.542,736.894 489.989,736.341 489.989,735.658C489.989,734.977 490.542,734.424 491.224,734.424C491.906,734.424 492.459,734.977 492.459,735.658C492.459,736.341 491.906,736.894 491.224,736.894Z" style="fill:rgb(90,80,78);fill-rule:nonzero;"/>
        <path d="M491.224,741.385C490.393,741.385 489.719,740.711 489.719,739.881C489.719,739.05 490.393,738.376 491.224,738.376C492.054,738.376 492.728,739.05 492.728,739.881C492.728,740.711 492.054,741.385 491.224,741.385Z" style="fill:rgb(90,80,78);fill-rule:nonzero;"/>
        <path d="M491.224,745.512C490.446,745.512 489.815,744.881 489.815,744.102C489.815,743.324 490.446,742.693 491.224,742.693C492.002,742.693 492.633,743.324 492.633,744.102C492.633,744.881 492.002,745.512 491.224,745.512Z" style="fill:rgb(90,80,78);fill-rule:nonzero;"/>
        <path d="M494.962,741.306C494.175,741.306 493.537,740.668 493.537,739.881C493.537,739.094 494.175,738.455 494.962,738.455C495.749,738.455 496.387,739.094 496.387,739.881C496.387,740.668 495.749,741.306 494.962,741.306Z" style="fill:rgb(90,80,78);fill-rule:nonzero;"/>
        <path d="M494.962,745.211C494.35,745.211 493.854,744.715 493.854,744.102C493.854,743.49 494.35,742.994 494.962,742.994C495.575,742.994 496.071,743.49 496.071,744.102C496.071,744.715 495.575,745.211 494.962,745.211Z" style="fill:rgb(90,80,78);fill-rule:nonzero;"/>
        <path d="M499.009,741.194C498.283,741.194 497.694,740.606 497.694,739.881C497.694,739.154 498.283,738.566 499.009,738.566C499.734,738.566 500.323,739.154 500.323,739.881C500.323,740.606 499.734,741.194 499.009,741.194Z" style="fill:rgb(90,80,78);fill-rule:nonzero;"/>
        <path d="M499.009,745.402C498.291,745.402 497.71,744.819 497.71,744.102C497.71,743.386 498.291,742.805 499.009,742.805C499.726,742.805 500.307,743.386 500.307,744.102C500.307,744.819 499.726,745.402 499.009,745.402Z" style="fill:rgb(90,80,78);fill-rule:nonzero;"/>
        <path d="M502.637,743.96C501.841,743.96 501.196,743.315 501.196,742.519C501.196,741.724 501.841,741.078 502.637,741.078C503.433,741.078 504.077,741.724 504.077,742.519C504.077,743.315 503.433,743.96 502.637,743.96Z" style="fill:rgb(90,80,78);fill-rule:nonzero;"/>
        <path d="M491.224,749.513C490.568,749.513 490.036,748.98 490.036,748.325C490.036,747.669 490.568,747.138 491.224,747.138C491.88,747.138 492.411,747.669 492.411,748.325C492.411,748.98 491.88,749.513 491.224,749.513Z" style="fill:rgb(90,80,78);fill-rule:nonzero;"/>
        <path d="M491.224,753.513C490.69,753.513 490.258,753.08 490.258,752.547C490.258,752.014 490.69,751.581 491.224,751.581C491.757,751.581 492.19,752.014 492.19,752.547C492.19,753.08 491.757,753.513 491.224,753.513Z" style="fill:rgb(90,80,78);fill-rule:nonzero;"/>
        <path d="M491.224,758.067C490.506,758.067 489.925,757.486 489.925,756.769C489.925,756.052 490.506,755.471 491.224,755.471C491.941,755.471 492.522,756.052 492.522,756.769C492.522,757.486 491.941,758.067 491.224,758.067Z" style="fill:rgb(90,80,78);fill-rule:nonzero;"/>
        <path d="M512.158,728.686C511.345,728.686 510.686,728.027 510.686,727.214C510.686,726.4 511.345,725.741 512.158,725.741C512.972,725.741 513.63,726.4 513.63,727.214C513.63,728.027 512.972,728.686 512.158,728.686Z" style="fill:rgb(90,80,78);fill-rule:nonzero;"/>
        <path d="M512.158,732.846C511.38,732.846 510.749,732.215 510.749,731.437C510.749,730.658 511.38,730.027 512.158,730.027C512.937,730.027 513.568,730.658 513.568,731.437C513.568,732.215 512.937,732.846 512.158,732.846Z" style="fill:rgb(90,80,78);fill-rule:nonzero;"/>
        <path d="M512.158,737.052C511.389,737.052 510.765,736.428 510.765,735.658C510.765,734.889 511.389,734.265 512.158,734.265C512.927,734.265 513.552,734.889 513.552,735.658C513.552,736.428 512.927,737.052 512.158,737.052Z" style="fill:rgb(90,80,78);fill-rule:nonzero;"/>
        <path d="M512.158,741.464C511.284,741.464 510.576,740.755 510.576,739.881C510.576,739.006 511.284,738.297 512.158,738.297C513.033,738.297 513.742,739.006 513.742,739.881C513.742,740.755 513.033,741.464 512.158,741.464Z" style="fill:rgb(90,80,78);fill-rule:nonzero;"/>
        <path d="M512.158,745.606C511.328,745.606 510.654,744.933 510.654,744.102C510.654,743.271 511.328,742.599 512.158,742.599C512.99,742.599 513.663,743.271 513.663,744.102C513.663,744.933 512.99,745.606 512.158,745.606Z" style="fill:rgb(90,80,78);fill-rule:nonzero;"/>
        <path d="M512.158,749.829C511.328,749.829 510.654,749.155 510.654,748.325C510.654,747.494 511.328,746.82 512.158,746.82C512.99,746.82 513.663,747.494 513.663,748.325C513.663,749.155 512.99,749.829 512.158,749.829Z" style="fill:rgb(90,80,78);fill-rule:nonzero;"/>
        <path d="M512.158,753.813C511.459,753.813 510.892,753.246 510.892,752.547C510.892,751.848 511.459,751.28 512.158,751.28C512.857,751.28 513.425,751.848 513.425,752.547C513.425,753.246 512.857,753.813 512.158,753.813Z" style="fill:rgb(90,80,78);fill-rule:nonzero;"/>
        <path d="M512.158,758.305C511.31,758.305 510.623,757.617 510.623,756.769C510.623,755.921 511.31,755.233 512.158,755.233C513.007,755.233 513.695,755.921 513.695,756.769C513.695,757.617 513.007,758.305 512.158,758.305Z" style="fill:rgb(90,80,78);fill-rule:nonzero;"/>
        <path d="M516.205,728.449C515.523,728.449 514.969,727.896 514.969,727.214C514.969,726.532 515.523,725.98 516.205,725.98C516.887,725.98 517.44,726.532 517.44,727.214C517.44,727.896 516.887,728.449 516.205,728.449Z" style="fill:rgb(90,80,78);fill-rule:nonzero;"/>
        <path d="M519.81,731.727C519.068,731.727 518.465,731.124 518.465,730.381C518.465,729.638 519.068,729.035 519.81,729.035C520.555,729.035 521.156,729.638 521.156,730.381C521.156,731.124 520.555,731.727 519.81,731.727Z" style="fill:rgb(90,80,78);fill-rule:nonzero;"/>
        <path d="M524.223,735.342C523.523,735.342 522.956,734.774 522.956,734.075C522.956,733.376 523.523,732.808 524.223,732.808C524.923,732.808 525.489,733.376 525.489,734.075C525.489,734.774 524.923,735.342 524.223,735.342Z" style="fill:rgb(90,80,78);fill-rule:nonzero;"/>
        <path d="M520.214,737.315C519.445,737.315 518.82,736.691 518.82,735.922C518.82,735.152 519.445,734.529 520.214,734.529C520.982,734.529 521.607,735.152 521.607,735.922C521.607,736.691 520.982,737.315 520.214,737.315Z" style="fill:rgb(90,80,78);fill-rule:nonzero;"/>
        <path d="M528.226,731.9C527.386,731.9 526.706,731.22 526.706,730.381C526.706,729.541 527.386,728.86 528.226,728.86C529.065,728.86 529.746,729.541 529.746,730.381C529.746,731.22 529.065,731.9 528.226,731.9Z" style="fill:rgb(90,80,78);fill-rule:nonzero;"/>
        <path d="M528.628,737.331C527.85,737.331 527.22,736.7 527.22,735.922C527.22,735.144 527.85,734.513 528.628,734.513C529.407,734.513 530.037,735.144 530.037,735.922C530.037,736.7 529.407,737.331 528.628,737.331Z" style="fill:rgb(90,80,78);fill-rule:nonzero;"/>
        <path d="M524.418,740.934C523.727,740.934 523.167,740.373 523.167,739.683C523.167,738.992 523.727,738.432 524.418,738.432C525.109,738.432 525.669,738.992 525.669,739.683C525.669,740.373 525.109,740.934 524.418,740.934Z" style="fill:rgb(90,80,78);fill-rule:nonzero;"/>
        <path d="M516.205,732.56C515.584,732.56 515.081,732.057 515.081,731.437C515.081,730.815 515.584,730.312 516.205,730.312C516.826,730.312 517.328,730.815 517.328,731.437C517.328,732.057 516.826,732.56 516.205,732.56Z" style="fill:rgb(90,80,78);fill-rule:nonzero;"/>
        <path d="M516.205,736.83C515.557,736.83 515.033,736.306 515.033,735.658C515.033,735.012 515.557,734.486 516.205,734.486C516.852,734.486 517.377,735.012 517.377,735.658C517.377,736.306 516.852,736.83 516.205,736.83Z" style="fill:rgb(90,80,78);fill-rule:nonzero;"/>
        <path d="M516.205,741.369C515.383,741.369 514.716,740.702 514.716,739.881C514.716,739.058 515.383,738.392 516.205,738.392C517.026,738.392 517.693,739.058 517.693,739.881C517.693,740.702 517.026,741.369 516.205,741.369Z" style="fill:rgb(90,80,78);fill-rule:nonzero;"/>
        <path d="M516.205,745.591C515.383,745.591 514.716,744.925 514.716,744.102C514.716,743.28 515.383,742.614 516.205,742.614C517.026,742.614 517.693,743.28 517.693,744.102C517.693,744.925 517.026,745.591 516.205,745.591Z" style="fill:rgb(90,80,78);fill-rule:nonzero;"/>
        <path d="M516.205,749.654C515.469,749.654 514.875,749.06 514.875,748.325C514.875,747.59 515.469,746.995 516.205,746.995C516.939,746.995 517.534,747.59 517.534,748.325C517.534,749.06 516.939,749.654 516.205,749.654Z" style="fill:rgb(90,80,78);fill-rule:nonzero;"/>
        <path d="M516.205,753.576C515.636,753.576 515.176,753.115 515.176,752.547C515.176,751.978 515.636,751.518 516.205,751.518C516.773,751.518 517.234,751.978 517.234,752.547C517.234,753.115 516.773,753.576 516.205,753.576Z" style="fill:rgb(90,80,78);fill-rule:nonzero;"/>
        <path d="M516.205,758.21C515.409,758.21 514.763,757.564 514.763,756.769C514.763,755.974 515.409,755.328 516.205,755.328C517,755.328 517.646,755.974 517.646,756.769C517.646,757.564 517,758.21 516.205,758.21Z" style="fill:rgb(90,80,78);fill-rule:nonzero;"/>
        <path d="M532.631,728.386C531.984,728.386 531.46,727.861 531.46,727.214C531.46,726.567 531.984,726.042 532.631,726.042C533.279,726.042 533.803,726.567 533.803,727.214C533.803,727.861 533.279,728.386 532.631,728.386Z" style="fill:rgb(90,80,78);fill-rule:nonzero;"/>
        <path d="M532.631,733.02C531.757,733.02 531.048,732.31 531.048,731.437C531.048,730.562 531.757,729.852 532.631,729.852C533.506,729.852 534.214,730.562 534.214,731.437C534.214,732.31 533.506,733.02 532.631,733.02Z" style="fill:rgb(90,80,78);fill-rule:nonzero;"/>
        <path d="M532.631,737.083C531.844,737.083 531.206,736.445 531.206,735.658C531.206,734.871 531.844,734.233 532.631,734.233C533.418,734.233 534.056,734.871 534.056,735.658C534.056,736.445 533.418,737.083 532.631,737.083Z" style="fill:rgb(90,80,78);fill-rule:nonzero;"/>
        <path d="M532.631,741.068C531.975,741.068 531.444,740.536 531.444,739.881C531.444,739.225 531.975,738.693 532.631,738.693C533.287,738.693 533.819,739.225 533.819,739.881C533.819,740.536 533.287,741.068 532.631,741.068Z" style="fill:rgb(90,80,78);fill-rule:nonzero;"/>
        <path d="M532.631,745.242C532.002,745.242 531.491,744.732 531.491,744.102C531.491,743.472 532.002,742.963 532.631,742.963C533.261,742.963 533.771,743.472 533.771,744.102C533.771,744.732 533.261,745.242 532.631,745.242Z" style="fill:rgb(90,80,78);fill-rule:nonzero;"/>
        <path d="M532.631,749.718C531.862,749.718 531.238,749.095 531.238,748.325C531.238,747.556 531.862,746.931 532.631,746.931C533.401,746.931 534.025,747.556 534.025,748.325C534.025,749.095 533.401,749.718 532.631,749.718Z" style="fill:rgb(90,80,78);fill-rule:nonzero;"/>
        <path d="M532.631,753.528C532.089,753.528 531.65,753.089 531.65,752.547C531.65,752.005 532.089,751.565 532.631,751.565C533.174,751.565 533.613,752.005 533.613,752.547C533.613,753.089 533.174,753.528 532.631,753.528Z" style="fill:rgb(90,80,78);fill-rule:nonzero;"/>
        <path d="M532.631,758.004C531.949,758.004 531.396,757.451 531.396,756.769C531.396,756.087 531.949,755.534 532.631,755.534C533.313,755.534 533.866,756.087 533.866,756.769C533.866,757.451 533.313,758.004 532.631,758.004Z" style="fill:rgb(90,80,78);fill-rule:nonzero;"/>
        <path d="M536.677,728.75C535.829,728.75 535.142,728.063 535.142,727.214C535.142,726.366 535.829,725.679 536.677,725.679C537.526,725.679 538.213,726.366 538.213,727.214C538.213,728.063 537.526,728.75 536.677,728.75Z" style="fill:rgb(90,80,78);fill-rule:nonzero;"/>
        <path d="M536.677,732.877C535.882,732.877 535.236,732.232 535.236,731.437C535.236,730.64 535.882,729.995 536.677,729.995C537.473,729.995 538.119,730.64 538.119,731.437C538.119,732.232 537.473,732.877 536.677,732.877Z" style="fill:rgb(90,80,78);fill-rule:nonzero;"/>
        <path d="M536.677,736.799C536.048,736.799 535.537,736.288 535.537,735.658C535.537,735.028 536.048,734.519 536.677,734.519C537.307,734.519 537.818,735.028 537.818,735.658C537.818,736.288 537.307,736.799 536.677,736.799Z" style="fill:rgb(90,80,78);fill-rule:nonzero;"/>
        <path d="M536.677,740.893C536.118,740.893 535.664,740.441 535.664,739.881C535.664,739.321 536.118,738.867 536.677,738.867C537.237,738.867 537.691,739.321 537.691,739.881C537.691,740.441 537.237,740.893 536.677,740.893Z" style="fill:rgb(90,80,78);fill-rule:nonzero;"/>
        <path d="M536.677,745.56C535.873,745.56 535.221,744.907 535.221,744.102C535.221,743.298 535.873,742.646 536.677,742.646C537.482,742.646 538.134,743.298 538.134,744.102C538.134,744.907 537.482,745.56 536.677,745.56Z" style="fill:rgb(90,80,78);fill-rule:nonzero;"/>
        <path d="M536.677,749.291C536.144,749.291 535.711,748.858 535.711,748.325C535.711,747.791 536.144,747.359 536.677,747.359C537.211,747.359 537.643,747.791 537.643,748.325C537.643,748.858 537.211,749.291 536.677,749.291Z" style="fill:rgb(90,80,78);fill-rule:nonzero;"/>
        <path d="M536.677,753.513C536.144,753.513 535.711,753.08 535.711,752.547C535.711,752.014 536.144,751.581 536.677,751.581C537.211,751.581 537.643,752.014 537.643,752.547C537.643,753.08 537.211,753.513 536.677,753.513Z" style="fill:rgb(90,80,78);fill-rule:nonzero;"/>
        <path d="M536.677,758.131C535.925,758.131 535.316,757.522 535.316,756.769C535.316,756.017 535.925,755.407 536.677,755.407C537.43,755.407 538.039,756.017 538.039,756.769C538.039,757.522 537.43,758.131 536.677,758.131Z" style="fill:rgb(90,80,78);fill-rule:nonzero;"/>
        <path d="M538.664,693.985L536.24,693.985L536.24,689.003L536.24,678.635L536.24,678.517L536.24,672.306C536.24,666.895 533.736,664.785 527.311,664.785L519.459,664.785C519.302,663.996 519.182,663.188 519.111,662.362L527.311,662.362C532.185,662.362 538.664,663.393 538.664,672.306L538.664,693.985Z" style="fill:rgb(249,248,247);fill-rule:nonzero;"/>
        <path d="M1050.16,341.345C985.345,341.345 953.423,312.075 922.553,283.768C890.664,254.529 860.544,226.911 791.654,226.911C723.173,226.911 693.61,254.289 662.309,283.275C631.481,311.824 599.604,341.345 533.152,341.345C526.042,341.345 520.278,335.581 520.278,328.471C520.278,321.361 526.042,315.597 533.152,315.597C589.512,315.597 615.14,291.864 644.815,264.384C676.813,234.75 713.082,201.164 791.654,201.164C870.563,201.164 907.427,234.967 939.953,264.791C969.686,292.053 995.361,315.597 1050.16,315.597C1057.26,315.597 1063.03,321.361 1063.03,328.471C1063.03,335.581 1057.26,341.345 1050.16,341.345Z" style="fill:rgb(156,141,138);fill-rule:nonzero;"/>
        <path d="M963.89,356.722C946.7,356.722 929.985,353.086 913.716,343.325C884.446,325.763 877.457,287.84 879.414,249.162C895.589,259.043 908.907,271.256 922.553,283.768C952.17,310.926 982.756,338.97 1042.43,341.202C1015.16,348.958 989.013,356.723 963.89,356.722Z" style="fill:rgb(233,227,225);fill-rule:nonzero;"/>
        <path d="M1027.93,276.275L1027.92,276.271C1027.92,276.272 1027.93,276.274 1027.93,276.275ZM1027.82,276.174C1027.81,276.169 1027.81,276.167 1027.8,276.162C1027.81,276.166 1027.81,276.17 1027.82,276.174ZM1027.7,276.071C1027.69,276.063 1027.69,276.055 1027.68,276.047C1027.69,276.054 1027.7,276.064 1027.7,276.071ZM1027.59,275.965C1027.58,275.954 1027.57,275.945 1027.55,275.934C1027.56,275.944 1027.58,275.955 1027.59,275.965ZM1027.44,275.827C1027.41,275.803 1027.38,275.775 1027.35,275.751C1027.38,275.776 1027.41,275.802 1027.44,275.827ZM1027.3,275.703C1027.28,275.681 1027.25,275.659 1027.23,275.637C1027.25,275.658 1027.28,275.682 1027.3,275.703ZM1027.18,275.589C1027.16,275.568 1027.13,275.545 1027.11,275.523C1027.13,275.546 1027.15,275.567 1027.18,275.589ZM1027.06,275.476C1027.03,275.454 1027.01,275.43 1026.98,275.408C1027.01,275.43 1027.03,275.453 1027.06,275.476ZM1026.93,275.362C1026.91,275.338 1026.88,275.316 1026.86,275.292C1026.88,275.314 1026.91,275.339 1026.93,275.362ZM1026.81,275.248C1026.78,275.222 1026.76,275.198 1026.73,275.172C1026.75,275.197 1026.78,275.223 1026.81,275.248ZM1026.69,275.135C1026.65,275.097 1026.6,275.058 1026.56,275.021C1026.61,275.059 1026.65,275.097 1026.69,275.135ZM1026.56,275.021C1016.76,265.921 1007.8,257.68 999.498,250.214C1007.8,257.678 1016.76,265.923 1026.56,275.021ZM999.489,250.206C999.38,250.108 999.276,250.015 999.167,249.917C999.277,250.015 999.38,250.108 999.489,250.206ZM999.097,249.854C999.076,249.835 999.052,249.813 999.032,249.795C999.051,249.813 999.077,249.836 999.097,249.854ZM998.932,249.705C998.916,249.691 998.913,249.688 998.897,249.674C998.911,249.686 998.919,249.694 998.932,249.705Z" style="fill:rgb(198,188,185);fill-rule:nonzero;"/>
        <path d="M1060.45,336.204C1062.07,334.051 1063.03,331.373 1063.03,328.471C1063.03,321.361 1057.26,315.597 1050.16,315.597C995.361,315.597 969.686,292.053 939.953,264.791C923.46,249.668 905.851,233.521 882.21,221.278C884.129,208.056 886.744,195.323 889.49,183.903C927.439,191.236 953.185,208.614 998.897,249.674C998.913,249.688 998.916,249.691 998.932,249.705C998.965,249.735 998.998,249.765 999.032,249.795C999.052,249.813 999.076,249.835 999.097,249.854C999.12,249.875 999.144,249.896 999.167,249.917C999.276,250.015 999.38,250.108 999.489,250.206C999.493,250.209 999.495,250.211 999.498,250.214C1007.8,257.68 1016.76,265.921 1026.56,275.021C1026.6,275.058 1026.65,275.097 1026.69,275.135C1026.7,275.147 1026.71,275.159 1026.73,275.172C1026.76,275.198 1026.78,275.222 1026.81,275.248C1026.83,275.263 1026.84,275.277 1026.86,275.292C1026.88,275.316 1026.91,275.338 1026.93,275.362C1026.95,275.378 1026.96,275.392 1026.98,275.408C1027.01,275.43 1027.03,275.454 1027.06,275.476C1027.07,275.491 1027.09,275.508 1027.11,275.523C1027.13,275.545 1027.16,275.568 1027.18,275.589C1027.2,275.606 1027.21,275.621 1027.23,275.637C1027.25,275.659 1027.28,275.681 1027.3,275.703C1027.32,275.719 1027.34,275.735 1027.35,275.751C1027.38,275.775 1027.41,275.803 1027.44,275.827C1027.48,275.864 1027.51,275.898 1027.55,275.934C1027.57,275.945 1027.58,275.954 1027.59,275.965C1027.62,275.992 1027.65,276.019 1027.68,276.047C1027.69,276.055 1027.69,276.063 1027.7,276.071C1027.74,276.103 1027.77,276.131 1027.8,276.162C1027.81,276.167 1027.81,276.169 1027.82,276.174C1027.85,276.206 1027.89,276.238 1027.92,276.271L1027.93,276.275C1049.82,296.262 1074.5,311.158 1097.71,328.121C1085.07,330.047 1072.64,332.962 1060.45,336.204Z" style="fill:rgb(233,227,225);fill-rule:nonzero;"/>
        <path d="M1042.43,341.202C982.756,338.97 952.17,310.926 922.553,283.768C908.907,271.256 895.589,259.043 879.414,249.162C879.887,239.821 880.882,230.431 882.21,221.278C905.851,233.521 923.46,249.668 939.953,264.791C969.686,292.053 995.361,315.597 1050.16,315.597C1057.26,315.597 1063.03,321.361 1063.03,328.471C1063.03,331.373 1062.07,334.051 1060.45,336.204C1054.38,337.816 1048.38,339.508 1042.43,341.202Z" style="fill:rgb(153,138,134);fill-rule:nonzero;"/>
        <path d="M627.667,354.591C604.559,354.591 583.18,347.586 563.188,340.58C562.199,340.234 561.213,339.887 560.23,339.541C608.916,332.718 635.997,307.642 662.309,283.275C673.289,273.108 684.057,263.136 696.364,254.476C698.188,298.196 691.378,339.241 661.961,349.047C650.111,352.997 638.692,354.591 627.667,354.591ZM484.774,329.608C504.336,311.872 525.691,294.543 547.916,275.021C612.302,218.468 643.342,194.881 687.936,185.178C690.237,197.557 692.431,211.295 694.04,225.417C674.46,236.929 659.207,251.056 644.815,264.384C615.14,291.864 589.512,315.597 533.152,315.597C526.282,315.597 520.669,320.978 520.297,327.756C515.807,327.001 511.387,326.569 507.03,326.569C501.986,326.569 497.025,327.148 492.145,328.47C489.623,329.155 487.173,329.487 484.774,329.608Z" style="fill:rgb(233,227,225);fill-rule:nonzero;"/>
        <path d="M560.23,339.541C546.282,334.632 533.013,329.894 520.297,327.756C520.669,320.978 526.282,315.597 533.152,315.597C589.512,315.597 615.14,291.864 644.815,264.384C659.207,251.056 674.46,236.929 694.04,225.417C695.136,235.029 695.96,244.818 696.364,254.476C684.057,263.136 673.289,273.108 662.309,283.275C635.997,307.642 608.916,332.718 560.23,339.541Z" style="fill:rgb(153,138,134);fill-rule:nonzero;"/>
        <path d="M1202.68,507.6C1202.65,507.426 1202.63,507.256 1202.6,507.081L1202.6,507.08C1202.63,507.251 1202.66,507.423 1202.69,507.595C1202.68,507.597 1202.68,507.597 1202.68,507.6Z" style="fill:rgb(198,188,185);fill-rule:nonzero;"/>
        <path d="M794.075,579.345L793.251,579.345C793.205,579.345 793.146,579.344 793.1,579.344L792.263,579.344C791.986,579.343 791.728,579.343 791.451,579.342C791.405,579.342 791.364,579.342 791.318,579.342C791.226,579.342 791.131,579.342 791.039,579.341C790.985,579.341 790.93,579.341 790.877,579.341C790.794,579.341 790.72,579.341 790.637,579.34C790.576,579.34 790.518,579.34 790.457,579.34C790.383,579.34 790.293,579.339 790.219,579.339C790.158,579.339 790.105,579.339 790.044,579.339C789.942,579.338 789.817,579.338 789.716,579.338C789.654,579.337 789.604,579.337 789.543,579.337C789.451,579.337 789.341,579.336 789.248,579.336C789.179,579.336 789.129,579.335 789.06,579.335C788.987,579.335 788.926,579.335 788.852,579.334C788.783,579.334 788.708,579.334 788.639,579.334C788.566,579.333 788.507,579.333 788.433,579.333C788.372,579.332 788.306,579.332 788.245,579.332C788.171,579.331 788.095,579.331 788.021,579.331C787.96,579.33 787.883,579.33 787.822,579.33C787.776,579.33 787.72,579.329 787.674,579.329C787.489,579.328 787.312,579.327 787.128,579.326C787.109,579.326 787.085,579.326 787.067,579.326C786.975,579.325 786.885,579.325 786.793,579.324C786.747,579.324 786.704,579.324 786.658,579.324C786.573,579.323 786.485,579.323 786.401,579.322C786.355,579.322 786.318,579.322 786.272,579.321C786.18,579.321 786.081,579.32 785.989,579.32C785.961,579.32 785.942,579.319 785.914,579.319C785.446,579.316 784.991,579.313 784.524,579.31C784.506,579.31 784.503,579.31 784.484,579.31C784.377,579.309 784.256,579.308 784.148,579.307C784.139,579.307 784.117,579.307 784.108,579.307C661.899,578.37 547.097,560.246 446.94,529.051C469.856,532.599 492.914,535.259 515.914,537.235C535.773,538.935 555.872,540.224 575.922,540.224C587.558,540.224 599.177,539.79 610.724,538.75C646.055,535.517 678.44,520.354 712.112,509.713C735.145,502.433 759.736,499.055 784.471,499.055C817.771,499.055 851.339,505.171 881.789,516.12C932.885,534.474 975.104,547.25 1022.72,547.25C1041.75,547.25 1061.64,545.209 1083.31,540.666C1123.56,532.228 1163.7,520.927 1202.6,507.08C1202.63,507.256 1202.65,507.426 1202.68,507.6C1086.7,552.826 945.891,579.345 794.075,579.345Z" style="fill:rgb(233,227,225);fill-rule:nonzero;"/>
        <path d="M794.075,603.204C793.926,603.204 793.767,603.204 793.618,603.204C793.766,603.204 793.927,603.204 794.075,603.204C957.115,603.204 1086.94,566.758 1203.38,512.802C1162.15,539.922 1039.59,603.204 794.075,603.204ZM793.582,603.204C551.797,603.095 404.402,522.151 402.361,521.024C507.597,567.659 640.121,603.127 793.582,603.204ZM793.662,579.345C793.625,579.345 793.578,579.345 793.541,579.345C793.579,579.345 793.623,579.345 793.662,579.345ZM793.251,579.345C793.205,579.345 793.147,579.344 793.1,579.344C793.146,579.344 793.205,579.345 793.251,579.345ZM792.836,579.344C792.79,579.344 792.727,579.344 792.681,579.344C792.727,579.344 792.79,579.344 792.836,579.344ZM792.416,579.344C792.369,579.344 792.309,579.344 792.263,579.344C792.317,579.344 792.362,579.344 792.416,579.344ZM791.451,579.342C791.405,579.342 791.364,579.342 791.318,579.342C791.364,579.342 791.405,579.342 791.451,579.342ZM791.039,579.341C790.993,579.341 790.923,579.341 790.877,579.341C790.93,579.341 790.985,579.341 791.039,579.341ZM790.637,579.34C790.572,579.34 790.521,579.34 790.457,579.34C790.518,579.34 790.576,579.34 790.637,579.34ZM790.219,579.339C790.154,579.339 790.108,579.339 790.044,579.339C790.105,579.339 790.158,579.339 790.219,579.339ZM789.716,579.338C789.651,579.337 789.608,579.337 789.543,579.337C789.604,579.337 789.654,579.337 789.716,579.338ZM789.248,579.336C789.184,579.336 789.125,579.335 789.06,579.335C789.129,579.335 789.179,579.336 789.248,579.336ZM788.852,579.334C788.787,579.334 788.704,579.334 788.639,579.334C788.708,579.334 788.783,579.334 788.852,579.334ZM788.433,579.333C788.369,579.332 788.309,579.332 788.245,579.332C788.306,579.332 788.372,579.332 788.433,579.333ZM788.021,579.331C787.957,579.33 787.886,579.33 787.822,579.33C787.883,579.33 787.96,579.33 788.021,579.331ZM787.674,579.329C787.489,579.328 787.312,579.327 787.128,579.326C787.312,579.327 787.489,579.328 787.674,579.329ZM787.067,579.326C786.975,579.325 786.885,579.325 786.793,579.324C786.885,579.325 786.975,579.325 787.067,579.326ZM786.658,579.324C786.575,579.323 786.484,579.323 786.401,579.322C786.485,579.323 786.573,579.323 786.658,579.324ZM786.272,579.321C786.18,579.321 786.081,579.32 785.989,579.32C786.081,579.32 786.18,579.321 786.272,579.321ZM785.914,579.319C785.453,579.316 784.984,579.313 784.524,579.31C784.991,579.313 785.446,579.316 785.914,579.319ZM784.484,579.31C784.374,579.309 784.259,579.308 784.148,579.307C784.256,579.308 784.377,579.309 784.484,579.31ZM784.108,579.307C661.874,578.371 547.06,560.249 446.907,529.046C446.918,529.047 446.929,529.049 446.94,529.051C547.097,560.246 661.899,578.37 784.108,579.307Z" style="fill:rgb(198,188,185);fill-rule:nonzero;"/>
        <path d="M794.075,603.204L793.582,603.204C640.121,603.127 507.597,567.659 402.361,521.024C402.347,521.016 402.34,521.012 402.34,521.012C417.091,524.099 431.956,526.759 446.907,529.046C547.06,560.249 661.874,578.371 784.108,579.307C784.117,579.307 784.139,579.307 784.148,579.307C784.259,579.308 784.374,579.309 784.484,579.31C784.503,579.31 784.506,579.31 784.524,579.31C784.984,579.313 785.453,579.316 785.914,579.319C785.942,579.319 785.961,579.32 785.989,579.32C786.081,579.32 786.18,579.321 786.272,579.321C786.318,579.322 786.355,579.322 786.401,579.322C786.484,579.323 786.575,579.323 786.658,579.324C786.704,579.324 786.747,579.324 786.793,579.324C786.885,579.325 786.975,579.325 787.067,579.326C787.085,579.326 787.109,579.326 787.128,579.326C787.312,579.327 787.489,579.328 787.674,579.329C787.72,579.329 787.776,579.33 787.822,579.33C787.886,579.33 787.957,579.33 788.021,579.331C788.095,579.331 788.171,579.331 788.245,579.332C788.309,579.332 788.369,579.332 788.433,579.333C788.507,579.333 788.566,579.333 788.639,579.334C788.704,579.334 788.787,579.334 788.852,579.334C788.926,579.335 788.987,579.335 789.06,579.335C789.125,579.335 789.184,579.336 789.248,579.336C789.341,579.336 789.451,579.337 789.543,579.337C789.608,579.337 789.651,579.337 789.716,579.338C789.817,579.338 789.942,579.338 790.044,579.339C790.108,579.339 790.154,579.339 790.219,579.339C790.293,579.339 790.383,579.34 790.457,579.34C790.521,579.34 790.572,579.34 790.637,579.34C790.72,579.341 790.794,579.341 790.877,579.341C790.923,579.341 790.993,579.341 791.039,579.341C791.131,579.342 791.226,579.342 791.318,579.342C791.364,579.342 791.405,579.342 791.451,579.342C791.728,579.343 791.986,579.343 792.263,579.344L793.1,579.344C793.147,579.344 793.205,579.345 793.251,579.345L794.075,579.345C945.901,579.345 1086.71,552.825 1202.69,507.595C1202.92,509.341 1203.15,511.056 1203.38,512.802C1086.94,566.758 957.115,603.204 794.075,603.204Z" style="fill:rgb(245,242,241);fill-rule:nonzero;"/>
        <path d="M1153.81,468.512C1148.98,468.512 1140.9,455.821 1135.21,438.963C1129.19,421.128 1128.12,405.383 1132.82,403.796C1133.08,403.709 1133.35,403.666 1133.63,403.666C1138.47,403.666 1146.54,416.356 1152.23,433.215C1158.25,451.05 1159.32,466.795 1154.62,468.382C1154.36,468.469 1154.09,468.512 1153.81,468.512Z" style="fill:rgb(218,209,207);fill-rule:nonzero;"/>
        <path d="M1204.38,436.245L1157.29,455.299L1144.96,460.276C1141.58,454.985 1138.09,447.517 1135.2,438.964C1132.86,432.039 1131.26,425.402 1130.48,419.825L1143.99,414.36L1188.27,396.451C1193.39,394.392 1199.23,396.879 1201.29,401.972L1209.9,423.229C1211.96,428.349 1209.5,434.185 1204.38,436.245Z" style="fill:rgb(3,126,243);fill-rule:nonzero;"/>
        <path d="M427.366,472.481C427.085,472.481 426.815,472.439 426.558,472.352C421.856,470.765 422.925,455.019 428.945,437.185C434.637,420.326 442.714,407.636 447.553,407.636C447.833,407.636 448.103,407.679 448.36,407.766C453.063,409.353 451.994,425.098 445.973,442.933C440.282,459.791 432.204,472.483 427.366,472.481Z" style="fill:rgb(218,209,207);fill-rule:nonzero;"/>
        <path d="M376.801,440.215L423.891,459.269L436.221,464.246C439.597,458.955 443.088,451.487 445.977,442.934C448.323,436.009 449.925,429.372 450.697,423.794L437.194,418.33L392.908,400.42C387.787,398.361 381.951,400.849 379.891,405.942L371.28,427.199C369.22,432.318 371.68,438.155 376.801,440.215Z" style="fill:rgb(3,126,243);fill-rule:nonzero;"/>
        <path d="M469.746,749.84C464.759,749.84 454.803,739.287 446.23,724.545C436.768,708.272 432.574,693.058 436.865,690.564C437.268,690.329 437.732,690.215 438.25,690.215C443.238,690.215 453.194,700.77 461.766,715.511C471.228,731.783 475.421,746.997 471.131,749.492C470.727,749.727 470.263,749.84 469.746,749.84Z" style="fill:rgb(218,209,207);fill-rule:nonzero;"/>
        <path d="M414.186,765.792L459.527,742.888L471.39,736.882C469.63,730.856 466.305,723.313 461.769,715.508C458.1,709.185 454.159,703.609 450.469,699.356L437.466,705.924L394.832,727.472C389.911,729.971 387.942,736.002 390.42,740.905L400.753,761.38C403.251,766.301 409.263,768.291 414.186,765.792Z" style="fill:rgb(3,126,243);fill-rule:nonzero;"/>
        <path d="M1105.52,749.84C1105.01,749.84 1104.54,749.727 1104.14,749.492C1099.85,746.997 1104.04,731.783 1113.51,715.511C1122.08,700.77 1132.03,690.215 1137.02,690.215C1137.54,690.215 1138,690.329 1138.41,690.564C1142.7,693.058 1138.5,708.272 1129.04,724.545C1120.47,739.287 1110.51,749.84 1105.52,749.84Z" style="fill:rgb(218,209,207);fill-rule:nonzero;"/>
        <path d="M1161.09,765.792L1115.74,742.888L1103.88,736.882C1105.64,730.856 1108.97,723.313 1113.5,715.508C1117.17,709.185 1121.11,703.609 1124.8,699.356L1137.8,705.924L1180.44,727.472C1185.36,729.971 1187.33,736.002 1184.85,740.905L1174.52,761.38C1172.02,766.301 1166.01,768.291 1161.09,765.792Z" style="fill:rgb(3,126,243);fill-rule:nonzero;"/>
    </g>
</svg>
