<svg clip-rule="evenodd" fill-rule="evenodd" stroke-linejoin="round" stroke-miterlimit="1.41421" viewBox="0 0 6838 4350" xmlns="http://www.w3.org/2000/svg"><g fill-rule="nonzero" transform="scale(4.16667)"><path d="m1203.38 512.802c-116.44 53.956-246.265 90.402-409.305 90.402-161.781 0-300.303-39.337-408.157-89.658.229-1.86.486-3.691.744-5.522 115.721 44.973 256.075 71.321 407.413 71.321 151.826 0 292.635-26.52 408.615-71.75.23 1.746.46 3.461.69 5.207z" fill="#f2edeb"/><path d="m1203.63 515.033c-101.81 60.049-247.573 97.67-409.555 97.67-161.352 0-306.654-37.363-408.415-97.012.316-2.574.631-5.149 1.002-7.667 19.426 7.58 39.537 14.591 60.278 21.027 22.916 3.548 45.974 6.208 68.974 8.184 31.385 2.687 63.369 4.346 94.81 1.515 35.331-3.233 67.716-18.396 101.388-29.037 54.041-17.081 116.608-12.675 169.677 6.407 71.521 25.69 125.651 40.452 201.521 24.546 40.25-8.438 80.39-19.739 119.29-33.586.03.171.06.343.09.515.23 1.746.46 3.461.69 5.207.08.744.17 1.487.25 2.231z" fill="#f2edeb"/><path d="m1226.89 549.845c-1.24 193.038-191.33 346.243-373.421 368.979-20.499 2.56-41.158 3.823-61.816 3.823-237.527 0-439.593-167.157-430.081-372.864 7.63-164.976 83.895-209.831 173.558-288.587 106.805-93.813 126.329-101.442 252.203-101.442 133.609 0 145.656 3.412 251.307 101.442 40.57 37.644 90.69 57.949 125.29 102.914 33.64 43.713 55.24 96.706 61.21 151.57 1.25 11.511 1.82 22.906 1.75 34.165z" fill="#cbc3c0"/><path d="m1205.52 549.418c-1.18 183.507-181.89 329.147-354.983 350.762-19.488 2.432-39.127 3.633-58.764 3.633-225.8 0-417.889-158.904-408.846-354.453 7.252-156.831 79.752-199.472 164.989-274.34 101.531-89.18 120.091-96.432 239.75-96.432 127.012 0 138.464 3.243 238.894 96.433 38.57 35.786 86.22 55.088 119.11 97.833 31.97 41.554 52.51 91.931 58.18 144.086 1.19 10.944 1.74 21.775 1.67 32.478z" fill="#f2edeb"/><path d="m1203.63 515.033c-101.81 60.049-247.573 97.67-409.555 97.67-161.352 0-306.654-37.363-408.415-97.012.316-2.574.631-5.149 1.002-7.667 19.426 7.58 39.537 14.591 60.278 21.027 102.876 32.042 221.201 50.294 347.135 50.294 151.826 0 292.635-26.52 408.615-71.75.23 1.746.46 3.461.69 5.207.08.744.17 1.487.25 2.231z" fill="#cbc3c0"/><path d="m1203.38 512.802c-116.44 53.956-246.265 90.402-409.305 90.402-161.781 0-300.303-39.337-408.157-89.658.229-1.86.486-3.691.744-5.522 115.721 44.973 256.075 71.321 407.413 71.321 151.826 0 292.635-26.52 408.615-71.75.23 1.746.46 3.461.69 5.207z" fill="#fff"/><path d="m706.267 691.084h-52.113c-3.679 0-6.975-1.902-8.815-5.089-1.839-3.186-1.839-6.99 0-10.177l26.057-45.132c1.84-3.185 5.135-5.087 8.815-5.087 3.679 0 6.974 1.902 8.813 5.087l26.057 45.132c1.84 3.187 1.84 6.991 0 10.177-1.839 3.187-5.135 5.089-8.814 5.089zm-26.056-59.764c-1.611 0-3.054.833-3.859 2.228l-26.056 45.131c-.806 1.395-.806 3.06 0 4.456.804 1.394 2.248 2.227 3.858 2.227h52.113c1.61 0 3.054-.833 3.858-2.227.806-1.396.806-3.061 0-4.456l-26.057-45.131c-.804-1.395-2.247-2.228-3.857-2.228z" fill="#685c5a"/><path d="m679.582 681.509c-1.104 0-1.956-.348-2.556-1.043-.599-.695-.899-1.619-.899-2.771 0-1.367.372-2.35 1.116-2.951.743-.598 1.774-.899 3.094-.899 1.152 0 2.016.336 2.592 1.008.575.671.863 1.619.863 2.842 0 1.295-.36 2.255-1.08 2.878-.72.624-1.763.936-3.13.936zm-.489-12.514c-.173 0-.292-.032-.356-.097-.086-.085-.139-.258-.163-.522l-1.403-28.895v-.107c0-.481.287-.779.863-.899.384-.073.846-.132 1.385-.181.541-.048 1.08-.09 1.62-.126.54-.035 1.025-.065 1.458-.09.432-.023.743-.036.935-.036.24 0 .444.061.611.18.167.121.252.301.252.54v.179l-2.77 29.254c-.024.265-.078.439-.163.523-.083.084-.233.137-.449.162l-1.655.107c-.06.006-.115.008-.165.008z" fill="#5a4f4d"/><path d="m772.095 681.509h-5.227l-5.734-23.449-5.954 23.449h-5.154l-10.307-35.426h6.678l6.17 24.755 6.099-24.755h4.791l5.953 24.755 6.242-24.755h6.751z" fill="#5a4f4d"/><path d="m817.609 681.509h-7.259l-3.847-9.147h-12.56l-3.92 9.147h-7.187l14.736-35.426h5.155zm-17.423-26.279-3.847 10.744h7.623z" fill="#5a4f4d"/><path d="m845.119 681.509h-8.131l-9.291-13.576v13.576h-6.534v-35.426h10.235c7.623 0 13.357 3.92 13.357 11.252 0 5.953-4.283 10.091-9.22 11.107zm-17.422-29.038v10.526h3.628c4.284 0 6.825-1.96 6.825-5.372s-2.541-5.154-6.825-5.154z" fill="#5a4f4d"/><path d="m877.64 681.509h-7.26l-14.882-25.772v25.772h-6.533v-35.426h7.404l14.738 25.916v-25.916h6.533z" fill="#5a4f4d"/><path d="m884.388 646.083h6.533v35.426h-6.533z" fill="#5a4f4d"/><path d="m926.492 681.509h-7.259l-14.882-25.772v25.772h-6.533v-35.426h7.403l14.737 25.916v-25.916h6.534z" fill="#5a4f4d"/><path d="m950.299 682.381c-10.162 0-18.875-7.987-18.875-18.367 0-10.454 8.785-18.584 18.803-18.584 7.186 0 14.591 4.5 17.133 11.034h-7.841c-2.106-2.904-5.735-4.647-9.292-4.647-6.607 0-12.27 5.446-12.27 11.979 0 6.606 6.1 12.196 12.56 12.196 4.138 0 8.493-2.687 10.382-6.389h-14.81v-6.17h23.085v.798c0 10.237-8.711 18.15-18.875 18.15z" fill="#5a4f4d"/><path d="m661.961 714.825h280.363v19.374h-280.363z" fill="#bbafab"/><path d="m661.961 768.474h280.363v19.374h-280.363z" fill="#bbafab"/><path d="m609.036 741.649h386.214v19.374h-386.214z" fill="#bbafab"/><path d="m1076.36 777.042h-55.91c-4.18 0-7.57-3.397-7.57-7.572v-119.685c0-4.175 3.39-7.572 7.57-7.572h55.91c4.18 0 7.58 3.397 7.58 7.572v119.685c0 4.175-3.4 7.572-7.58 7.572zm-55.91-130.834c-1.97 0-3.58 1.604-3.58 3.577v119.685c0 1.973 1.61 3.577 3.58 3.577h55.91c1.98 0 3.58-1.604 3.58-3.577v-119.685c0-1.973-1.6-3.577-3.58-3.577z" fill="#5a4f4d"/><path d="m1066.23 756.394h-36.44v-7.618l26.66-15.159h-26.66v-6.721h36.44v7.469l-26.51 15.308h26.51z" fill="#5a4f4d"/><path d="m1041.76 721.801c-8.12 0-13.35-6.446-13.35-14.757 0-8.406 5.13-14.663 13.07-14.663 6.35 0 13.82 5.323 24.75 13.73v7.283l-14.1-10.086c.75 2.054 1.21 4.015 1.21 6.07 0 6.911-5.04 12.423-11.58 12.423zm-.84-22.789c-3.64 0-6.72 3.736-6.72 8.032 0 4.39 2.99 8.031 6.72 8.031 3.74 0 6.82-3.641 6.82-8.031 0-4.576-3.18-8.032-6.82-8.032z" fill="#5a4f4d"/><path d="m1063.24 686.498-5.51-1.027c2.15-2.895 3.18-5.977 3.18-9.525 0-5.324-2.9-8.594-7.01-8.594-4.76 0-7.38 4.11-7.38 9.153 0 2.43.57 4.764 1.69 7.19l-19.34-2.988v-17.463h5.33v12.234l7.19 1.027c-.09-.747-.19-1.401-.19-2.15 0-7.375 5.05-13.167 11.96-13.167 8.03 0 13.54 5.978 13.54 14.758 0 4.95-.94 7.004-3.46 10.552z" fill="#5a4f4d"/><path d="m531.46 678.665v-.252c.752.146 1.523.222 2.308.222.855 0 1.679-.04 2.472-.118v.118h-3.905c-.294 0-.586.01-.875.03zm9.358-.03h-2.154v-.49c.751-.161 1.468-.358 2.154-.592z" fill="#5a504e"/><path d="m562.442 704.752c-1.17 0-2.345-.411-3.289-1.247l-3.119-2.761v-9.452c0-4.343-2.188-8.176-5.521-10.455.37.213.725.466 1.057.761l15.124 13.386c2.053 1.819 2.245 4.956.427 7.01l-.96 1.084c-.981 1.108-2.347 1.674-3.719 1.674z" fill="#5a504e"/><path d="m513.096 704.752c-1.373 0-2.739-.566-3.72-1.674l-.96-1.084c-1.817-2.054-1.626-5.191.427-7.01l15.123-13.386c.548-.484 1.154-.858 1.793-1.123-3.647 2.221-6.082 6.235-6.082 10.817v9.298l-3.292 2.915c-.945.836-2.119 1.247-3.289 1.247z" fill="#5a504e"/><path d="m533.768 678.635c-.785 0-1.556-.076-2.308-.222-7.047-1.366-12.436-8.885-12.436-17.957 0-3.248.691-6.296 1.901-8.935.317.183.502.183.502.183l16.429-9.127h-.001c10.01 1.551 13.991 8.966 13.991 17.879 0 7.865-3.596 14.564-11.028 17.097-.686.234-1.403.431-2.154.592v-5.839c0-8.913-6.479-9.944-11.353-9.944h-8.2c.071.826.191 1.634.348 2.423h7.852c6.425 0 8.929 2.11 8.929 7.521v6.211c-.793.078-1.617.118-2.472.118z" fill="#5a504e"/><path d="m556.034 720.916h-36.357v-20.326-9.298c0-4.582 2.435-8.596 6.082-10.817 1.682-1.025 3.623-1.669 5.701-1.81.289-.02.581-.03.875-.03h3.905v10.368h-.908c-.218-2.513-.867-4.107-2.675-4.107-3.275 0-9.116 5.23-9.116 11.681s2.655 11.682 5.931 11.682 5.931-5.231 5.931-11.682c0-.034 0-.067 0-.101h4.059v.101c0 6.451 2.655 11.682 5.931 11.682s5.931-5.231 5.931-11.682-5.841-11.681-9.116-11.681c-1.808 0-2.457 1.594-2.676 4.107h-.868v-10.368h4.713c2.647 0 5.104.813 7.136 2.202 3.333 2.279 5.521 6.112 5.521 10.455z" fill="#5a504e"/><path d="m521.427 651.704s-.185 0-.502-.183c-.657-.378-1.873-1.539-3.167-5.102-1.78-4.906.304-9.258.304-9.258s4.24 4.174 9.695 4.174c3.287 0 10.046 1.232 10.098 1.242h.001z" fill="#5a504e"/><path d="m545.393 708.259c-3.276 0-5.931-5.231-5.931-11.682 0-.034 0-.067 0-.101h3.241v-7.473h-3.171c.219-2.513.868-4.107 2.676-4.107 3.275 0 9.116 5.23 9.116 11.681s-2.655 11.682-5.931 11.682z" fill="#f9f8f7"/><path d="m529.472 708.259c-3.276 0-5.931-5.231-5.931-11.682s5.841-11.681 9.116-11.681c1.808 0 2.457 1.594 2.675 4.107h-3.401v7.473h3.472v.101c0 6.451-2.655 11.682-5.931 11.682z" fill="#f9f8f7"/><path d="m542.703 696.476h-3.241-4.059-3.472v-7.473h4.309v4.982h2.424v-4.982h4.039z" fill="#f9f8f7"/><g fill="#5a504e"><path d="m487.178 728.433c-.674 0-1.22-.545-1.22-1.219 0-.673.546-1.219 1.22-1.219.673 0 1.219.546 1.219 1.219 0 .674-.546 1.219-1.219 1.219z"/><path d="m487.178 732.988c-.857 0-1.552-.695-1.552-1.551 0-.858.695-1.552 1.552-1.552s1.551.694 1.551 1.552c0 .856-.694 1.551-1.551 1.551z"/><path d="m487.178 736.799c-.63 0-1.14-.511-1.14-1.141s.51-1.139 1.14-1.139 1.14.509 1.14 1.139-.51 1.141-1.14 1.141z"/><path d="m487.178 740.909c-.569 0-1.029-.46-1.029-1.028s.46-1.03 1.029-1.03c.568 0 1.029.462 1.029 1.03s-.461 1.028-1.029 1.028z"/><path d="m487.178 745.322c-.674 0-1.22-.546-1.22-1.22 0-.672.546-1.218 1.22-1.218.673 0 1.219.546 1.219 1.218 0 .674-.546 1.22-1.219 1.22z"/><path d="m487.178 749.417c-.604 0-1.093-.489-1.093-1.092s.489-1.093 1.093-1.093c.603 0 1.092.49 1.092 1.093s-.489 1.092-1.092 1.092z"/><path d="m487.178 753.497c-.525 0-.95-.426-.95-.95 0-.525.425-.95.95-.95.524 0 .95.425.95.95 0 .524-.426.95-.95.95z"/><path d="m487.178 757.925c-.639 0-1.156-.518-1.156-1.156s.517-1.156 1.156-1.156c.638 0 1.155.518 1.155 1.156s-.517 1.156-1.155 1.156z"/><path d="m491.224 728.766c-.857 0-1.552-.695-1.552-1.552s.695-1.552 1.552-1.552 1.552.695 1.552 1.552-.695 1.552-1.552 1.552z"/><path d="m545.155 731.246c-.77 0-1.393-.624-1.393-1.394 0-.769.623-1.392 1.393-1.392s1.393.623 1.393 1.392c0 .77-.623 1.394-1.393 1.394z"/><path d="m494.962 728.401c-.656 0-1.187-.531-1.187-1.187 0-.655.531-1.188 1.187-1.188s1.188.533 1.188 1.188c0 .656-.532 1.187-1.188 1.187z"/><path d="m499.009 728.401c-.656 0-1.188-.531-1.188-1.187 0-.655.532-1.188 1.188-1.188.655 0 1.187.533 1.187 1.188 0 .656-.532 1.187-1.187 1.187z"/><path d="m502.175 731.41c-.568 0-1.029-.461-1.029-1.029s.461-1.029 1.029-1.029 1.029.461 1.029 1.029-.461 1.029-1.029 1.029z"/><path d="m504.814 735.727c-.621 0-1.124-.503-1.124-1.125 0-.62.503-1.123 1.124-1.123s1.124.503 1.124 1.123c0 .622-.503 1.125-1.124 1.125z"/><path d="m503.054 739.58c-.708 0-1.282-.574-1.282-1.283 0-.708.574-1.282 1.282-1.282.709 0 1.283.574 1.283 1.282 0 .709-.574 1.283-1.283 1.283z"/><path d="m491.224 732.624c-.656 0-1.188-.532-1.188-1.187 0-.657.532-1.188 1.188-1.188s1.187.531 1.187 1.188c0 .655-.531 1.187-1.187 1.187z"/><path d="m544.913 735.922c-.874 0-1.583-.709-1.583-1.583s.709-1.583 1.583-1.583c.875 0 1.583.709 1.583 1.583s-.708 1.583-1.583 1.583z"/><path d="m548.607 728.639c-.787 0-1.425-.638-1.425-1.425s.638-1.425 1.425-1.425 1.425.638 1.425 1.425-.638 1.425-1.425 1.425z"/><path d="m549.795 732.56c-.621 0-1.124-.503-1.124-1.123 0-.622.503-1.125 1.124-1.125s1.124.503 1.124 1.125c0 .62-.503 1.123-1.124 1.123z"/><path d="m552.236 728.08c-.77 0-1.393-.624-1.393-1.393 0-.77.623-1.394 1.393-1.394.769 0 1.393.624 1.393 1.394 0 .769-.624 1.393-1.393 1.393z"/><path d="m554.237 731.6c-.673 0-1.219-.546-1.219-1.219 0-.674.546-1.22 1.219-1.22s1.219.546 1.219 1.22c0 .673-.546 1.219-1.219 1.219z"/><path d="m556.7 728.576c-.752 0-1.362-.61-1.362-1.362s.61-1.362 1.362-1.362 1.361.61 1.361 1.362-.609 1.362-1.361 1.362z"/><path d="m560.658 731.52c-.63 0-1.14-.509-1.14-1.139s.51-1.141 1.14-1.141 1.14.511 1.14 1.141-.51 1.139-1.14 1.139z"/><path d="m562.703 735.373c-.717 0-1.298-.581-1.298-1.298s.581-1.299 1.298-1.299 1.299.582 1.299 1.299-.582 1.298-1.299 1.298z"/><path d="m552.807 744.33c-.708 0-1.282-.574-1.282-1.283 0-.708.574-1.282 1.282-1.282.709 0 1.283.574 1.283 1.282 0 .709-.574 1.283-1.283 1.283z"/><path d="m544.561 757.846c-.595 0-1.077-.483-1.077-1.077s.482-1.077 1.077-1.077 1.077.483 1.077 1.077-.482 1.077-1.077 1.077z"/><path d="m546.364 748.742c-.813 0-1.472-.66-1.472-1.473s.659-1.472 1.472-1.472 1.472.659 1.472 1.472-.659 1.473-1.472 1.473z"/><path d="m557.579 734.877c-.734 0-1.33-.595-1.33-1.33 0-.734.596-1.329 1.33-1.329.735 0 1.33.595 1.33 1.329 0 .735-.595 1.33-1.33 1.33z"/><path d="m550.059 748.361c-.604 0-1.093-.488-1.093-1.092 0-.603.489-1.092 1.093-1.092.603 0 1.092.489 1.092 1.092 0 .604-.489 1.092-1.092 1.092z"/><path d="m548.607 752.52c-.568 0-1.029-.46-1.029-1.029 0-.568.461-1.029 1.029-1.029.569 0 1.03.461 1.03 1.029 0 .569-.461 1.029-1.03 1.029z"/><path d="m548.607 757.809c-.865 0-1.567-.702-1.567-1.568 0-.865.702-1.567 1.567-1.567.866 0 1.568.702 1.568 1.567 0 .866-.702 1.568-1.568 1.568z"/><path d="m552.653 757.777c-.848 0-1.535-.687-1.535-1.536 0-.848.687-1.536 1.535-1.536.849 0 1.536.688 1.536 1.536 0 .849-.687 1.536-1.536 1.536z"/><path d="m556.7 757.365c-.621 0-1.124-.503-1.124-1.124s.503-1.124 1.124-1.124c.62 0 1.124.503 1.124 1.124s-.504 1.124-1.124 1.124z"/><path d="m560.746 757.461c-.674 0-1.219-.546-1.219-1.22 0-.673.545-1.218 1.219-1.218.673 0 1.219.545 1.219 1.218 0 .674-.546 1.22-1.219 1.22z"/><path d="m566.925 757.54c-.717 0-1.298-.582-1.298-1.299s.581-1.298 1.298-1.298 1.299.581 1.299 1.298-.582 1.299-1.299 1.299z"/><path d="m556.7 742.794c-.735 0-1.33-.596-1.33-1.33s.595-1.33 1.33-1.33c.734 0 1.33.596 1.33 1.33s-.596 1.33-1.33 1.33z"/><path d="m544.561 752.648c-.639 0-1.155-.518-1.155-1.157 0-.637.516-1.155 1.155-1.155s1.156.518 1.156 1.155c0 .639-.517 1.157-1.156 1.157z"/><path d="m548.915 745.183c-.682 0-1.235-.552-1.235-1.235 0-.681.553-1.234 1.235-1.234.683 0 1.235.553 1.235 1.234 0 .683-.552 1.235-1.235 1.235z"/><path d="m560.152 738.535c-.568 0-1.029-.461-1.029-1.029s.461-1.029 1.029-1.029c.569 0 1.029.461 1.029 1.029s-.46 1.029-1.029 1.029z"/><path d="m572.15 754.885c-.709 0-1.283-.574-1.283-1.282 0-.709.574-1.283 1.283-1.283.707 0 1.282.574 1.282 1.283 0 .708-.575 1.282-1.282 1.282z"/><path d="m571.907 750.541c-.786 0-1.424-.637-1.424-1.425 0-.787.638-1.424 1.424-1.424.787 0 1.426.637 1.426 1.424 0 .788-.639 1.425-1.426 1.425z"/><path d="m575.602 757.286c-.577 0-1.045-.468-1.045-1.045s.468-1.045 1.045-1.045 1.045.468 1.045 1.045-.468 1.045-1.045 1.045z"/><path d="m575.47 752.964c-.813 0-1.472-.659-1.472-1.473 0-.813.659-1.473 1.472-1.473s1.473.66 1.473 1.473c0 .814-.66 1.473-1.473 1.473z"/><path d="m575.91 748.81c-.56 0-1.013-.454-1.013-1.013 0-.56.453-1.013 1.013-1.013s1.013.453 1.013 1.013c0 .559-.453 1.013-1.013 1.013z"/><path d="m579.23 758.226c-.804 0-1.456-.653-1.456-1.457s.652-1.457 1.456-1.457c.805 0 1.457.653 1.457 1.457s-.652 1.457-1.457 1.457z"/><path d="m583.694 757.714c-.813 0-1.472-.659-1.472-1.473 0-.813.659-1.473 1.472-1.473s1.473.66 1.473 1.473c0 .814-.66 1.473-1.473 1.473z"/><path d="m587.653 754.072c-.551 0-.998-.446-.998-.998 0-.55.447-.997.998-.997s.997.447.997.997c0 .552-.446.998-.997.998z"/><path d="m589.698 750.505c-.621 0-1.125-.504-1.125-1.125 0-.62.504-1.124 1.125-1.124s1.124.504 1.124 1.124c0 .621-.503 1.125-1.124 1.125z"/><path d="m579.802 739.822c-.551 0-.997-.446-.997-.997 0-.55.446-.998.997-.998s.998.448.998.998c0 .551-.447.997-.998.997z"/><path d="m571.556 728.254c-.866 0-1.567-.702-1.567-1.567 0-.867.701-1.568 1.567-1.568.865 0 1.567.701 1.567 1.568 0 .865-.702 1.567-1.567 1.567z"/><path d="m573.359 737.278c-.603 0-1.093-.489-1.093-1.091 0-.604.49-1.093 1.093-1.093s1.092.489 1.092 1.093c0 .602-.489 1.091-1.092 1.091z"/><path d="m577.054 737.168c-.542 0-.983-.439-.983-.981 0-.544.441-.983.983-.983s.981.439.981.983c0 .542-.439.981-.981.981z"/><path d="m575.602 733.547c-.874 0-1.583-.708-1.583-1.583 0-.874.709-1.583 1.583-1.583s1.583.709 1.583 1.583c0 .875-.709 1.583-1.583 1.583z"/><path d="m575.602 728.228c-.56 0-1.013-.454-1.013-1.014s.453-1.013 1.013-1.013 1.013.453 1.013 1.013-.453 1.014-1.013 1.014z"/><path d="m579.648 728.212c-.55 0-.998-.447-.998-.998s.448-.997.998-.997c.551 0 .998.446.998.997s-.447.998-.998.998z"/><path d="m583.694 728.686c-.813 0-1.472-.659-1.472-1.472 0-.814.659-1.473 1.472-1.473s1.473.659 1.473 1.473c0 .813-.66 1.472-1.473 1.472z"/><path d="m587.741 728.433c-.673 0-1.219-.545-1.219-1.219 0-.673.546-1.219 1.219-1.219s1.219.546 1.219 1.219c0 .674-.546 1.219-1.219 1.219z"/><path d="m583.694 740.98c-.813 0-1.472-.66-1.472-1.473 0-.814.659-1.473 1.472-1.473s1.473.659 1.473 1.473c0 .813-.66 1.473-1.473 1.473z"/><path d="m571.556 733.436c-.814 0-1.473-.659-1.473-1.472 0-.814.659-1.473 1.473-1.473.813 0 1.472.659 1.472 1.473 0 .813-.659 1.472-1.472 1.472z"/><path d="m575.91 740.488c-.542 0-.981-.439-.981-.981s.439-.982.981-.982.981.44.981.982-.439.981-.981.981z"/><path d="m572.15 740.839c-.638 0-1.156-.518-1.156-1.156 0-.639.518-1.157 1.156-1.157s1.155.518 1.155 1.157c0 .638-.517 1.156-1.155 1.156z"/><path d="m590.213 746.646c-.822 0-1.488-.666-1.488-1.488s.666-1.488 1.488-1.488 1.488.666 1.488 1.488-.666 1.488-1.488 1.488z"/><path d="m588.115 743.163c-.648 0-1.172-.524-1.172-1.172 0-.646.524-1.171 1.172-1.171.646 0 1.171.525 1.171 1.171 0 .648-.525 1.172-1.171 1.172z"/><path d="m491.224 736.894c-.682 0-1.235-.553-1.235-1.236 0-.681.553-1.234 1.235-1.234s1.235.553 1.235 1.234c0 .683-.553 1.236-1.235 1.236z"/><path d="m491.224 741.385c-.831 0-1.505-.674-1.505-1.504 0-.831.674-1.505 1.505-1.505.83 0 1.504.674 1.504 1.505 0 .83-.674 1.504-1.504 1.504z"/><path d="m491.224 745.512c-.778 0-1.409-.631-1.409-1.41 0-.778.631-1.409 1.409-1.409s1.409.631 1.409 1.409c0 .779-.631 1.41-1.409 1.41z"/><path d="m494.962 741.306c-.787 0-1.425-.638-1.425-1.425s.638-1.426 1.425-1.426 1.425.639 1.425 1.426-.638 1.425-1.425 1.425z"/><path d="m494.962 745.211c-.612 0-1.108-.496-1.108-1.109 0-.612.496-1.108 1.108-1.108.613 0 1.109.496 1.109 1.108 0 .613-.496 1.109-1.109 1.109z"/><path d="m499.009 741.194c-.726 0-1.315-.588-1.315-1.313 0-.727.589-1.315 1.315-1.315.725 0 1.314.588 1.314 1.315 0 .725-.589 1.313-1.314 1.313z"/><path d="m499.009 745.402c-.718 0-1.299-.583-1.299-1.3 0-.716.581-1.297 1.299-1.297.717 0 1.298.581 1.298 1.297 0 .717-.581 1.3-1.298 1.3z"/><path d="m502.637 743.96c-.796 0-1.441-.645-1.441-1.441 0-.795.645-1.441 1.441-1.441s1.44.646 1.44 1.441c0 .796-.644 1.441-1.44 1.441z"/><path d="m491.224 749.513c-.656 0-1.188-.533-1.188-1.188 0-.656.532-1.187 1.188-1.187s1.187.531 1.187 1.187c0 .655-.531 1.188-1.187 1.188z"/><path d="m491.224 753.513c-.534 0-.966-.433-.966-.966s.432-.966.966-.966c.533 0 .966.433.966.966s-.433.966-.966.966z"/><path d="m491.224 758.067c-.718 0-1.299-.581-1.299-1.298s.581-1.298 1.299-1.298c.717 0 1.298.581 1.298 1.298s-.581 1.298-1.298 1.298z"/><path d="m512.158 728.686c-.813 0-1.472-.659-1.472-1.472 0-.814.659-1.473 1.472-1.473.814 0 1.472.659 1.472 1.473 0 .813-.658 1.472-1.472 1.472z"/><path d="m512.158 732.846c-.778 0-1.409-.631-1.409-1.409 0-.779.631-1.41 1.409-1.41.779 0 1.41.631 1.41 1.41 0 .778-.631 1.409-1.41 1.409z"/><path d="m512.158 737.052c-.769 0-1.393-.624-1.393-1.394 0-.769.624-1.393 1.393-1.393s1.394.624 1.394 1.393c0 .77-.625 1.394-1.394 1.394z"/><path d="m512.158 741.464c-.874 0-1.582-.709-1.582-1.583 0-.875.708-1.584 1.582-1.584.875 0 1.584.709 1.584 1.584 0 .874-.709 1.583-1.584 1.583z"/><path d="m512.158 745.606c-.83 0-1.504-.673-1.504-1.504s.674-1.503 1.504-1.503c.832 0 1.505.672 1.505 1.503s-.673 1.504-1.505 1.504z"/><path d="m512.158 749.829c-.83 0-1.504-.674-1.504-1.504 0-.831.674-1.505 1.504-1.505.832 0 1.505.674 1.505 1.505 0 .83-.673 1.504-1.505 1.504z"/><path d="m512.158 753.813c-.699 0-1.266-.567-1.266-1.266s.567-1.267 1.266-1.267 1.267.568 1.267 1.267-.568 1.266-1.267 1.266z"/><path d="m512.158 758.305c-.848 0-1.535-.688-1.535-1.536s.687-1.536 1.535-1.536c.849 0 1.537.688 1.537 1.536s-.688 1.536-1.537 1.536z"/><path d="m516.205 728.449c-.682 0-1.236-.553-1.236-1.235s.554-1.234 1.236-1.234 1.235.552 1.235 1.234-.553 1.235-1.235 1.235z"/><path d="m519.81 731.727c-.742 0-1.345-.603-1.345-1.346s.603-1.346 1.345-1.346c.745 0 1.346.603 1.346 1.346s-.601 1.346-1.346 1.346z"/><path d="m524.223 735.342c-.7 0-1.267-.568-1.267-1.267s.567-1.267 1.267-1.267 1.266.568 1.266 1.267-.566 1.267-1.266 1.267z"/><path d="m520.214 737.315c-.769 0-1.394-.624-1.394-1.393 0-.77.625-1.393 1.394-1.393.768 0 1.393.623 1.393 1.393 0 .769-.625 1.393-1.393 1.393z"/><path d="m528.226 731.9c-.84 0-1.52-.68-1.52-1.519 0-.84.68-1.521 1.52-1.521.839 0 1.52.681 1.52 1.521 0 .839-.681 1.519-1.52 1.519z"/><path d="m528.628 737.331c-.778 0-1.408-.631-1.408-1.409s.63-1.409 1.408-1.409c.779 0 1.409.631 1.409 1.409s-.63 1.409-1.409 1.409z"/><path d="m524.418 740.934c-.691 0-1.251-.561-1.251-1.251 0-.691.56-1.251 1.251-1.251s1.251.56 1.251 1.251c0 .69-.56 1.251-1.251 1.251z"/><path d="m516.205 732.56c-.621 0-1.124-.503-1.124-1.123 0-.622.503-1.125 1.124-1.125s1.123.503 1.123 1.125c0 .62-.502 1.123-1.123 1.123z"/><path d="m516.205 736.83c-.648 0-1.172-.524-1.172-1.172 0-.646.524-1.172 1.172-1.172.647 0 1.172.526 1.172 1.172 0 .648-.525 1.172-1.172 1.172z"/><path d="m516.205 741.369c-.822 0-1.489-.667-1.489-1.488 0-.823.667-1.489 1.489-1.489.821 0 1.488.666 1.488 1.489 0 .821-.667 1.488-1.488 1.488z"/><path d="m516.205 745.591c-.822 0-1.489-.666-1.489-1.489 0-.822.667-1.488 1.489-1.488.821 0 1.488.666 1.488 1.488 0 .823-.667 1.489-1.488 1.489z"/><path d="m516.205 749.654c-.736 0-1.33-.594-1.33-1.329s.594-1.33 1.33-1.33c.734 0 1.329.595 1.329 1.33s-.595 1.329-1.329 1.329z"/><path d="m516.205 753.576c-.569 0-1.029-.461-1.029-1.029 0-.569.46-1.029 1.029-1.029.568 0 1.029.46 1.029 1.029 0 .568-.461 1.029-1.029 1.029z"/><path d="m516.205 758.21c-.796 0-1.442-.646-1.442-1.441s.646-1.441 1.442-1.441c.795 0 1.441.646 1.441 1.441s-.646 1.441-1.441 1.441z"/><path d="m532.631 728.386c-.647 0-1.171-.525-1.171-1.172s.524-1.172 1.171-1.172c.648 0 1.172.525 1.172 1.172s-.524 1.172-1.172 1.172z"/><path d="m532.631 733.02c-.874 0-1.583-.71-1.583-1.583 0-.875.709-1.585 1.583-1.585.875 0 1.583.71 1.583 1.585 0 .873-.708 1.583-1.583 1.583z"/><path d="m532.631 737.083c-.787 0-1.425-.638-1.425-1.425s.638-1.425 1.425-1.425 1.425.638 1.425 1.425-.638 1.425-1.425 1.425z"/><path d="m532.631 741.068c-.656 0-1.187-.532-1.187-1.187 0-.656.531-1.188 1.187-1.188s1.188.532 1.188 1.188c0 .655-.532 1.187-1.188 1.187z"/><path d="m532.631 745.242c-.629 0-1.14-.51-1.14-1.14s.511-1.139 1.14-1.139c.63 0 1.14.509 1.14 1.139s-.51 1.14-1.14 1.14z"/><path d="m532.631 749.718c-.769 0-1.393-.623-1.393-1.393 0-.769.624-1.394 1.393-1.394.77 0 1.394.625 1.394 1.394 0 .77-.624 1.393-1.394 1.393z"/><path d="m532.631 753.528c-.542 0-.981-.439-.981-.981s.439-.982.981-.982c.543 0 .982.44.982.982s-.439.981-.982.981z"/><path d="m532.631 758.004c-.682 0-1.235-.553-1.235-1.235s.553-1.235 1.235-1.235 1.235.553 1.235 1.235-.553 1.235-1.235 1.235z"/><path d="m536.677 728.75c-.848 0-1.535-.687-1.535-1.536 0-.848.687-1.535 1.535-1.535.849 0 1.536.687 1.536 1.535 0 .849-.687 1.536-1.536 1.536z"/><path d="m536.677 732.877c-.795 0-1.441-.645-1.441-1.44 0-.797.646-1.442 1.441-1.442.796 0 1.442.645 1.442 1.442 0 .795-.646 1.44-1.442 1.44z"/><path d="m536.677 736.799c-.629 0-1.14-.511-1.14-1.141s.511-1.139 1.14-1.139c.63 0 1.141.509 1.141 1.139s-.511 1.141-1.141 1.141z"/><path d="m536.677 740.893c-.559 0-1.013-.452-1.013-1.012s.454-1.014 1.013-1.014c.56 0 1.014.454 1.014 1.014s-.454 1.012-1.014 1.012z"/><path d="m536.677 745.56c-.804 0-1.456-.653-1.456-1.458 0-.804.652-1.456 1.456-1.456.805 0 1.457.652 1.457 1.456 0 .805-.652 1.458-1.457 1.458z"/><path d="m536.677 749.291c-.533 0-.966-.433-.966-.966 0-.534.433-.966.966-.966.534 0 .966.432.966.966 0 .533-.432.966-.966.966z"/><path d="m536.677 753.513c-.533 0-.966-.433-.966-.966s.433-.966.966-.966c.534 0 .966.433.966.966s-.432.966-.966.966z"/><path d="m536.677 758.131c-.752 0-1.361-.609-1.361-1.362 0-.752.609-1.362 1.361-1.362.753 0 1.362.61 1.362 1.362 0 .753-.609 1.362-1.362 1.362z"/></g><path d="m538.664 693.985h-2.424v-4.982-10.368-.118-6.211c0-5.411-2.504-7.521-8.929-7.521h-7.852c-.157-.789-.277-1.597-.348-2.423h8.2c4.874 0 11.353 1.031 11.353 9.944z" fill="#f9f8f7"/><path d="m1050.16 341.345c-64.815 0-96.737-29.27-127.607-57.577-31.889-29.239-62.009-56.857-130.899-56.857-68.481 0-98.044 27.378-129.345 56.364-30.828 28.549-62.705 58.07-129.157 58.07-7.11 0-12.874-5.764-12.874-12.874s5.764-12.874 12.874-12.874c56.36 0 81.988-23.733 111.663-51.213 31.998-29.634 68.267-63.22 146.839-63.22 78.909 0 115.773 33.803 148.299 63.627 29.733 27.262 55.408 50.806 110.207 50.806 7.1 0 12.87 5.764 12.87 12.874s-5.77 12.874-12.87 12.874z" fill="#9c8d8a"/><path d="m963.89 356.722c-17.19 0-33.905-3.636-50.174-13.397-29.27-17.562-36.259-55.485-34.302-94.163 16.175 9.881 29.493 22.094 43.139 34.606 29.617 27.158 60.203 55.202 119.877 57.434-27.27 7.756-53.417 15.521-78.54 15.52z" fill="#e9e3e1"/><path d="m1027.93 276.275-.01-.004c0 .001.01.003.01.004zm-.11-.101c-.01-.005-.01-.007-.02-.012.01.004.01.008.02.012zm-.12-.103c-.01-.008-.01-.016-.02-.024.01.007.02.017.02.024zm-.11-.106c-.01-.011-.02-.02-.04-.031.01.01.03.021.04.031zm-.15-.138c-.03-.024-.06-.052-.09-.076.03.025.06.051.09.076zm-.14-.124c-.02-.022-.05-.044-.07-.066.02.021.05.045.07.066zm-.12-.114c-.02-.021-.05-.044-.07-.066.02.023.04.044.07.066zm-.12-.113c-.03-.022-.05-.046-.08-.068.03.022.05.045.08.068zm-.13-.114c-.02-.024-.05-.046-.07-.07.02.022.05.047.07.07zm-.12-.114c-.03-.026-.05-.05-.08-.076.02.025.05.051.08.076zm-.12-.113c-.04-.038-.09-.077-.13-.114.05.038.09.076.13.114zm-.13-.114c-9.8-9.1-18.76-17.341-27.062-24.807 8.302 7.464 17.262 15.709 27.062 24.807zm-27.071-24.815c-.109-.098-.213-.191-.322-.289.11.098.213.191.322.289zm-.392-.352c-.021-.019-.045-.041-.065-.059.019.018.045.041.065.059zm-.165-.149c-.016-.014-.019-.017-.035-.031.014.012.022.02.035.031z" fill="#c6bcb9"/><path d="m1060.45 336.204c1.62-2.153 2.58-4.831 2.58-7.733 0-7.11-5.77-12.874-12.87-12.874-54.799 0-80.474-23.544-110.207-50.806-16.493-15.123-34.102-31.27-57.743-43.513 1.919-13.222 4.534-25.955 7.28-37.375 37.949 7.333 63.695 24.711 109.407 65.771.016.014.019.017.035.031.033.03.066.06.1.09.02.018.044.04.065.059.023.021.047.042.07.063.109.098.213.191.322.289.004.003.006.005.009.008 8.302 7.466 17.262 15.707 27.062 24.807.04.037.09.076.13.114.01.012.02.024.04.037.03.026.05.05.08.076.02.015.03.029.05.044.02.024.05.046.07.07.02.016.03.03.05.046.03.022.05.046.08.068.01.015.03.032.05.047.02.022.05.045.07.066.02.017.03.032.05.048.02.022.05.044.07.066.02.016.04.032.05.048.03.024.06.052.09.076.04.037.07.071.11.107.02.011.03.02.04.031.03.027.06.054.09.082.01.008.01.016.02.024.04.032.07.06.1.091.01.005.01.007.02.012.03.032.07.064.1.097l.01.004c21.89 19.987 46.57 34.883 69.78 51.846-12.64 1.926-25.07 4.841-37.26 8.083z" fill="#e9e3e1"/><path d="m1042.43 341.202c-59.674-2.232-90.26-30.276-119.877-57.434-13.646-12.512-26.964-24.725-43.139-34.606.473-9.341 1.468-18.731 2.796-27.884 23.641 12.243 41.25 28.39 57.743 43.513 29.733 27.262 55.408 50.806 110.207 50.806 7.1 0 12.87 5.764 12.87 12.874 0 2.902-.96 5.58-2.58 7.733-6.07 1.612-12.07 3.304-18.02 4.998z" fill="#998a86"/><path d="m627.667 354.591c-23.108 0-44.487-7.005-64.479-14.011-.989-.346-1.975-.693-2.958-1.039 48.686-6.823 75.767-31.899 102.079-56.266 10.98-10.167 21.748-20.139 34.055-28.799 1.824 43.72-4.986 84.765-34.403 94.571-11.85 3.95-23.269 5.544-34.294 5.544zm-142.893-24.983c19.562-17.736 40.917-35.065 63.142-54.587 64.386-56.553 95.426-80.14 140.02-89.843 2.301 12.379 4.495 26.117 6.104 40.239-19.58 11.512-34.833 25.639-49.225 38.967-29.675 27.48-55.303 51.213-111.663 51.213-6.87 0-12.483 5.381-12.855 12.159-4.49-.755-8.91-1.187-13.267-1.187-5.044 0-10.005.579-14.885 1.901-2.522.685-4.972 1.017-7.371 1.138z" fill="#e9e3e1"/><path d="m560.23 339.541c-13.948-4.909-27.217-9.647-39.933-11.785.372-6.778 5.985-12.159 12.855-12.159 56.36 0 81.988-23.733 111.663-51.213 14.392-13.328 29.645-27.455 49.225-38.967 1.096 9.612 1.92 19.401 2.324 29.059-12.307 8.66-23.075 18.632-34.055 28.799-26.312 24.367-53.393 49.443-102.079 56.266z" fill="#998a86"/><path d="m1202.68 507.6c-.03-.174-.05-.344-.08-.519v-.001c.03.171.06.343.09.515-.01.002-.01.002-.01.005z" fill="#c6bcb9"/><path d="m794.075 579.345h-.824c-.046 0-.105-.001-.151-.001h-.837c-.277-.001-.535-.001-.812-.002-.046 0-.087 0-.133 0-.092 0-.187 0-.279-.001-.054 0-.109 0-.162 0-.083 0-.157 0-.24-.001-.061 0-.119 0-.18 0-.074 0-.164-.001-.238-.001-.061 0-.114 0-.175 0-.102-.001-.227-.001-.328-.001-.062-.001-.112-.001-.173-.001-.092 0-.202-.001-.295-.001-.069 0-.119-.001-.188-.001-.073 0-.134 0-.208-.001-.069 0-.144 0-.213 0-.073-.001-.132-.001-.206-.001-.061-.001-.127-.001-.188-.001-.074-.001-.15-.001-.224-.001-.061-.001-.138-.001-.199-.001-.046 0-.102-.001-.148-.001-.185-.001-.362-.002-.546-.003-.019 0-.043 0-.061 0-.092-.001-.182-.001-.274-.002-.046 0-.089 0-.135 0-.085-.001-.173-.001-.257-.002-.046 0-.083 0-.129-.001-.092 0-.191-.001-.283-.001-.028 0-.047-.001-.075-.001-.468-.003-.923-.006-1.39-.009-.018 0-.021 0-.04 0-.107-.001-.228-.002-.336-.003-.009 0-.031 0-.04 0-122.209-.937-237.011-19.061-337.168-50.256 22.916 3.548 45.974 6.208 68.974 8.184 19.859 1.7 39.958 2.989 60.008 2.989 11.636 0 23.255-.434 34.802-1.474 35.331-3.233 67.716-18.396 101.388-29.037 23.033-7.28 47.624-10.658 72.359-10.658 33.3 0 66.868 6.116 97.318 17.065 51.096 18.354 93.315 31.13 140.931 31.13 19.03 0 38.92-2.041 60.59-6.584 40.25-8.438 80.39-19.739 119.29-33.586.03.176.05.346.08.52-115.98 45.226-256.789 71.745-408.605 71.745z" fill="#e9e3e1"/><path d="m794.075 603.204c-.149 0-.308 0-.457 0h.457c163.04 0 292.865-36.446 409.305-90.402-41.23 27.12-163.79 90.402-409.305 90.402zm-.493 0c-241.785-.109-389.18-81.053-391.221-82.18 105.236 46.635 237.76 82.103 391.221 82.18zm.08-23.859c-.037 0-.084 0-.121 0zm-.411 0c-.046 0-.104-.001-.151-.001.046 0 .105.001.151.001zm-.415-.001c-.046 0-.109 0-.155 0zm-.42 0c-.047 0-.107 0-.153 0zm-.965-.002c-.046 0-.087 0-.133 0zm-.412-.001c-.046 0-.116 0-.162 0zm-.402-.001c-.065 0-.116 0-.18 0zm-.418-.001c-.065 0-.111 0-.175 0zm-.503-.001c-.065-.001-.108-.001-.173-.001.061 0 .111 0 .173.001zm-.468-.002c-.064 0-.123-.001-.188-.001.069 0 .119.001.188.001zm-.396-.002c-.065 0-.148 0-.213 0zm-.419-.001c-.064-.001-.124-.001-.188-.001.061 0 .127 0 .188.001zm-.412-.002c-.064-.001-.135-.001-.199-.001.061 0 .138 0 .199.001zm-.347-.002c-.185-.001-.362-.002-.546-.003.184.001.361.002.546.003zm-.607-.003c-.092-.001-.182-.001-.274-.002.092.001.182.001.274.002zm-.409-.002c-.083-.001-.174-.001-.257-.002.084.001.172.001.257.002zm-.386-.003c-.092 0-.191-.001-.283-.001.092 0 .191.001.283.001zm-.358-.002c-.461-.003-.93-.006-1.39-.009.467.003.922.006 1.39.009zm-1.43-.009c-.11-.001-.225-.002-.336-.003.108.001.229.002.336.003zm-.376-.003c-122.234-.936-237.048-19.058-337.201-50.261.011.001.022.003.033.005 100.157 31.195 214.959 49.319 337.168 50.256z" fill="#c6bcb9"/><path d="m794.075 603.204h-.493c-153.461-.077-285.985-35.545-391.221-82.18-.014-.008-.021-.012-.021-.012 14.751 3.087 29.616 5.747 44.567 8.034 100.153 31.203 214.967 49.325 337.201 50.261h.04c.111.001.226.002.336.003h.04c.46.003.929.006 1.39.009.028 0 .047.001.075.001.092 0 .191.001.283.001.046.001.083.001.129.001.083.001.174.001.257.002h.135c.092.001.182.001.274.002h.061c.184.001.361.002.546.003.046 0 .102.001.148.001.064 0 .135 0 .199.001.074 0 .15 0 .224.001.064 0 .124 0 .188.001.074 0 .133 0 .206.001h.213c.074.001.135.001.208.001.065 0 .124.001.188.001.093 0 .203.001.295.001.065 0 .108 0 .173.001.101 0 .226 0 .328.001h.175c.074 0 .164.001.238.001h.18c.083.001.157.001.24.001h.162c.092.001.187.001.279.001h.133c.277.001.535.001.812.002h.837c.047 0 .105.001.151.001h.824c151.826 0 292.635-26.52 408.615-71.75.23 1.746.46 3.461.69 5.207-116.44 53.956-246.265 90.402-409.305 90.402z" fill="#f5f2f1"/><path d="m1153.81 468.512c-4.83 0-12.91-12.691-18.6-29.549-6.02-17.835-7.09-33.58-2.39-35.167.26-.087.53-.13.81-.13 4.84 0 12.91 12.69 18.6 29.549 6.02 17.835 7.09 33.58 2.39 35.167-.26.087-.53.13-.81.13z" fill="#dad1cf"/><path d="m1204.38 436.245-47.09 19.054-12.33 4.977c-3.38-5.291-6.87-12.759-9.76-21.312-2.34-6.925-3.94-13.562-4.72-19.139l13.51-5.465 44.28-17.909c5.12-2.059 10.96.428 13.02 5.521l8.61 21.257c2.06 5.12-.4 10.956-5.52 13.016z" fill="#037ef3"/><path d="m427.366 472.481c-.281 0-.551-.042-.808-.129-4.702-1.587-3.633-17.333 2.387-35.167 5.692-16.859 13.769-29.549 18.608-29.549.28 0 .55.043.807.13 4.703 1.587 3.634 17.332-2.387 35.167-5.691 16.858-13.769 29.55-18.607 29.548z" fill="#dad1cf"/><path d="m376.801 440.215 47.09 19.054 12.33 4.977c3.376-5.291 6.867-12.759 9.756-21.312 2.346-6.925 3.948-13.562 4.72-19.14l-13.503-5.464-44.286-17.91c-5.121-2.059-10.957.429-13.017 5.522l-8.611 21.257c-2.06 5.119.4 10.956 5.521 13.016z" fill="#037ef3"/><path d="m469.746 749.84c-4.987 0-14.943-10.553-23.516-25.295-9.462-16.273-13.656-31.487-9.365-33.981.403-.235.867-.349 1.385-.349 4.988 0 14.944 10.555 23.516 25.296 9.462 16.272 13.655 31.486 9.365 33.981-.404.235-.868.348-1.385.348z" fill="#dad1cf"/><path d="m414.186 765.792 45.341-22.904 11.863-6.006c-1.76-6.026-5.085-13.569-9.621-21.374-3.669-6.323-7.61-11.899-11.3-16.152l-13.003 6.568-42.634 21.548c-4.921 2.499-6.89 8.53-4.412 13.433l10.333 20.475c2.498 4.921 8.51 6.911 13.433 4.412z" fill="#037ef3"/><path d="m1105.52 749.84c-.51 0-.98-.113-1.38-.348-4.29-2.495-.1-17.709 9.37-33.981 8.57-14.741 18.52-25.296 23.51-25.296.52 0 .98.114 1.39.349 4.29 2.494.09 17.708-9.37 33.981-8.57 14.742-18.53 25.295-23.52 25.295z" fill="#dad1cf"/><path d="m1161.09 765.792-45.35-22.904-11.86-6.006c1.76-6.026 5.09-13.569 9.62-21.374 3.67-6.323 7.61-11.899 11.3-16.152l13 6.568 42.64 21.548c4.92 2.499 6.89 8.53 4.41 13.433l-10.33 20.475c-2.5 4.921-8.51 6.911-13.43 4.412z" fill="#037ef3"/></g></svg>